<svg width="164" height="29" viewBox="0 0 164 29" fill="none" xmlns="http://www.w3.org/2000/svg">
<path opacity="0.9" d="M13.075 6.13788C13.4578 5.37226 14.5424 5.40416 14.8933 6.13788L16.9988 10.3807L21.6563 11.0506C22.4858 11.1782 22.8048 12.1991 22.1987 12.8052L18.8491 16.091L19.6466 20.7167C19.7742 21.5461 18.881 22.1841 18.1472 21.8013L14.0001 19.6001L9.82106 21.8013C9.08734 22.1841 8.19411 21.5461 8.32171 20.7167L9.11924 16.091L5.76963 12.8052C5.16351 12.1991 5.48252 11.1782 6.31195 11.0506L11.0014 10.3807L13.075 6.13788Z" fill="#FF9A60"/>
<path opacity="0.9" d="M47.075 6.13788C47.4578 5.37226 48.5424 5.40416 48.8933 6.13788L50.9988 10.3807L55.6563 11.0506C56.4858 11.1782 56.8048 12.1991 56.1987 12.8052L52.8491 16.091L53.6466 20.7167C53.7742 21.5461 52.881 22.1841 52.1472 21.8013L48.0001 19.6001L43.8211 21.8013C43.0873 22.1841 42.1941 21.5461 42.3217 20.7167L43.1192 16.091L39.7696 12.8052C39.1635 12.1991 39.4825 11.1782 40.3119 11.0506L45.0014 10.3807L47.075 6.13788Z" fill="#FF9A60"/>
<path opacity="0.9" d="M81.0752 6.13788C81.458 5.37226 82.5427 5.40416 82.8936 6.13788L84.999 10.3807L89.6566 11.0506C90.486 11.1782 90.805 12.1991 90.1989 12.8052L86.8493 16.091L87.6468 20.7167C87.7744 21.5461 86.8812 22.1841 86.1475 21.8013L82.0003 19.6001L77.8213 21.8013C77.0876 22.1841 76.1944 21.5461 76.322 20.7167L77.1195 16.091L73.7699 12.8052C73.1638 12.1991 73.4828 11.1782 74.3122 11.0506L79.0016 10.3807L81.0752 6.13788Z" fill="#FF9A60"/>
<path opacity="0.9" d="M115.075 6.13788C115.458 5.37226 116.543 5.40416 116.894 6.13788L118.999 10.3807L123.657 11.0506C124.486 11.1782 124.805 12.1991 124.199 12.8052L120.849 16.091L121.647 20.7167C121.774 21.5461 120.881 22.1841 120.147 21.8013L116 19.6001L111.821 21.8013C111.088 22.1841 110.194 21.5461 110.322 20.7167L111.119 16.091L107.77 12.8052C107.164 12.1991 107.483 11.1782 108.312 11.0506L113.002 10.3807L115.075 6.13788Z" fill="#FF9A60"/>
<path opacity="0.9" d="M149.075 6.13788C149.458 5.37226 150.542 5.40416 150.893 6.13788L152.999 10.3807L157.656 11.0506C158.486 11.1782 158.805 12.1991 158.198 12.8052L154.849 16.091L155.646 20.7167C155.774 21.5461 154.881 22.1841 154.147 21.8013L150 19.6001L145.821 21.8013C145.087 22.1841 144.194 21.5461 144.321 20.7167L145.119 16.091L141.769 12.8052C141.163 12.1991 141.482 11.1782 142.312 11.0506L147.001 10.3807L149.075 6.13788Z" fill="#FF9A60"/>
</svg>
