<svg width="1050" height="111" viewBox="0 0 1050 111" fill="none" xmlns="http://www.w3.org/2000/svg">
<rect x="1" y="1.01091" width="38" height="38" rx="3" stroke="#062630" stroke-width="2"/>
<path d="M21.988 10.3109V26.9429H26.692V29.5109H14.068V26.9429H19.252V11.4629L20.02 11.9189L14.068 15.7829V12.8549L18.1 10.3109H21.988Z" fill="#062630"/>
<path d="M6.57 83.3349C4.806 83.3349 3.468 82.7049 2.556 81.4449C1.644 80.1729 1.188 78.2949 1.188 75.8109C1.188 73.3149 1.656 71.4369 2.592 70.1769C3.528 68.9169 4.908 68.2869 6.732 68.2869C7.74 68.2869 8.61 68.5029 9.342 68.9349C10.086 69.3549 10.668 69.9729 11.088 70.7889C11.52 71.5929 11.766 72.5709 11.826 73.7229H9.36C9.192 72.7509 8.886 72.0189 8.442 71.5269C8.01 71.0229 7.44 70.7709 6.732 70.7709C5.772 70.7709 5.058 71.1849 4.59 72.0129C4.122 72.8289 3.888 74.0949 3.888 75.8109C3.888 77.5269 4.104 78.7989 4.536 79.6269C4.98 80.4429 5.658 80.8509 6.57 80.8509C7.242 80.8509 7.782 80.6229 8.19 80.1669C8.61 79.6989 8.904 79.0149 9.072 78.1149H11.538C11.466 79.2189 11.22 80.1609 10.8 80.9409C10.392 81.7209 9.828 82.3149 9.108 82.7229C8.4 83.1309 7.554 83.3349 6.57 83.3349ZM14.1695 83.0109V67.7469H16.7615V72.9849H17.3915C17.6435 72.5769 17.9855 72.2649 18.4175 72.0489C18.8495 71.8209 19.3355 71.7069 19.8755 71.7069C20.6195 71.7069 21.2555 71.8809 21.7835 72.2289C22.3235 72.5649 22.7375 73.0569 23.0255 73.7049C23.3135 74.3409 23.4575 75.1029 23.4575 75.9909V83.0109H20.8655V76.6389C20.8655 75.8229 20.6915 75.2049 20.3435 74.7849C19.9955 74.3529 19.4855 74.1369 18.8135 74.1369C18.1415 74.1369 17.6315 74.3529 17.2835 74.7849C16.9355 75.2049 16.7615 75.8229 16.7615 76.6389V83.0109H14.1695ZM31.147 83.3349C30.103 83.3349 29.191 83.1009 28.411 82.6329C27.643 82.1529 27.043 81.4809 26.611 80.6169C26.191 79.7409 25.981 78.7089 25.981 77.5209C25.981 76.3329 26.191 75.3069 26.611 74.4429C27.043 73.5669 27.643 72.8949 28.411 72.4269C29.191 71.9469 30.103 71.7069 31.147 71.7069C32.203 71.7069 33.115 71.9469 33.883 72.4269C34.651 72.8949 35.245 73.5669 35.665 74.4429C36.097 75.3069 36.313 76.3329 36.313 77.5209C36.313 78.7089 36.097 79.7409 35.665 80.6169C35.245 81.4809 34.651 82.1529 33.883 82.6329C33.115 83.1009 32.203 83.3349 31.147 83.3349ZM31.147 80.9949C31.987 80.9949 32.635 80.6889 33.091 80.0769C33.547 79.4649 33.775 78.6129 33.775 77.5209C33.775 76.4289 33.547 75.5769 33.091 74.9649C32.635 74.3529 31.987 74.0469 31.147 74.0469C30.319 74.0469 29.671 74.3529 29.203 74.9649C28.747 75.5769 28.519 76.4289 28.519 77.5209C28.519 78.6129 28.747 79.4649 29.203 80.0769C29.671 80.6889 30.319 80.9949 31.147 80.9949ZM43.5705 83.3349C42.5265 83.3349 41.6145 83.1009 40.8345 82.6329C40.0665 82.1529 39.4665 81.4809 39.0345 80.6169C38.6145 79.7409 38.4045 78.7089 38.4045 77.5209C38.4045 76.3329 38.6145 75.3069 39.0345 74.4429C39.4665 73.5669 40.0665 72.8949 40.8345 72.4269C41.6145 71.9469 42.5265 71.7069 43.5705 71.7069C44.6265 71.7069 45.5385 71.9469 46.3065 72.4269C47.0745 72.8949 47.6685 73.5669 48.0885 74.4429C48.5205 75.3069 48.7365 76.3329 48.7365 77.5209C48.7365 78.7089 48.5205 79.7409 48.0885 80.6169C47.6685 81.4809 47.0745 82.1529 46.3065 82.6329C45.5385 83.1009 44.6265 83.3349 43.5705 83.3349ZM43.5705 80.9949C44.4105 80.9949 45.0585 80.6889 45.5145 80.0769C45.9705 79.4649 46.1985 78.6129 46.1985 77.5209C46.1985 76.4289 45.9705 75.5769 45.5145 74.9649C45.0585 74.3529 44.4105 74.0469 43.5705 74.0469C42.7425 74.0469 42.0945 74.3529 41.6265 74.9649C41.1705 75.5769 40.9425 76.4289 40.9425 77.5209C40.9425 78.6129 41.1705 79.4649 41.6265 80.0769C42.0945 80.6889 42.7425 80.9949 43.5705 80.9949ZM53.8701 79.6089C54.0381 80.0769 54.3141 80.4369 54.6981 80.6889C55.0821 80.9289 55.5741 81.0489 56.1741 81.0489C56.8101 81.0489 57.2961 80.9469 57.6321 80.7429C57.9681 80.5389 58.1361 80.2509 58.1361 79.8789C58.1361 79.5789 58.0101 79.3449 57.7581 79.1769C57.5061 78.9969 57.1221 78.8709 56.6061 78.7989L55.0941 78.6189C53.8821 78.4629 52.9761 78.1149 52.3761 77.5749C51.7881 77.0349 51.4941 76.2729 51.4941 75.2889C51.4941 74.1729 51.8961 73.2969 52.7001 72.6609C53.5161 72.0249 54.6441 71.7069 56.0841 71.7069C57.5841 71.7069 58.7481 72.0489 59.5761 72.7329C60.4161 73.4049 60.8661 74.3769 60.9261 75.6489H58.5321C58.3881 75.1089 58.1121 74.7009 57.7041 74.4249C57.2961 74.1369 56.7501 73.9929 56.0661 73.9929C55.3941 73.9929 54.8781 74.1009 54.5181 74.3169C54.1701 74.5209 53.9961 74.8149 53.9961 75.1989C53.9961 75.4869 54.1221 75.7209 54.3741 75.9009C54.6261 76.0689 55.0101 76.1829 55.5261 76.2429L57.0381 76.4409C58.2621 76.5849 59.1681 76.9329 59.7561 77.4849C60.3441 78.0249 60.6381 78.7809 60.6381 79.7529C60.6381 80.4969 60.4581 81.1389 60.0981 81.6789C59.7501 82.2069 59.2401 82.6149 58.5681 82.9029C57.9081 83.1909 57.1041 83.3349 56.1561 83.3349C54.7161 83.3349 53.5941 83.0169 52.7901 82.3809C51.9861 81.7329 51.5361 80.8089 51.4401 79.6089H53.8701ZM65.5736 76.3869H71.8376L70.9736 77.4129C70.9736 76.2849 70.7756 75.4329 70.3796 74.8569C69.9836 74.2689 69.3956 73.9749 68.6156 73.9749C67.7876 73.9749 67.1516 74.2809 66.7076 74.8929C66.2756 75.4929 66.0596 76.3449 66.0596 77.4489C66.0596 78.6369 66.2756 79.5369 66.7076 80.1489C67.1516 80.7609 67.8116 81.0669 68.6876 81.0669C69.2036 81.0669 69.6596 80.9469 70.0556 80.7069C70.4636 80.4549 70.8056 80.0889 71.0816 79.6089H73.5476C73.3316 80.3889 72.9896 81.0609 72.5216 81.6249C72.0656 82.1769 71.5076 82.6029 70.8476 82.9029C70.1876 83.1909 69.4496 83.3349 68.6336 83.3349C67.5776 83.3349 66.6716 83.1009 65.9156 82.6329C65.1596 82.1649 64.5776 81.4929 64.1696 80.6169C63.7616 79.7409 63.5576 78.6849 63.5576 77.4489C63.5576 76.2729 63.7676 75.2589 64.1876 74.4069C64.6076 73.5429 65.1956 72.8769 65.9516 72.4089C66.7076 71.9409 67.5956 71.7069 68.6156 71.7069C69.5996 71.7069 70.4396 71.9349 71.1356 72.3909C71.8316 72.8349 72.3656 73.4829 72.7376 74.3349C73.1096 75.1749 73.2956 76.1949 73.2956 77.3949C73.2956 77.5749 73.2896 77.7429 73.2776 77.8989C73.2656 78.0549 73.2536 78.2109 73.2416 78.3669H65.5736V76.3869ZM87.9006 72.0309H90.5826L93.1926 80.0229H94.6686L94.0926 82.1109H91.2666L87.9006 72.0309ZM98.6826 72.0309L95.1006 84.3069C94.8486 85.1469 94.4466 85.7949 93.8946 86.2509C93.3426 86.7069 92.6706 86.9349 91.8786 86.9349C90.8706 86.9349 90.0786 86.6589 89.5026 86.1069C88.9266 85.5549 88.5906 84.7389 88.4946 83.6589H90.7806C90.9126 84.0309 91.0566 84.2949 91.2126 84.4509C91.3806 84.6189 91.5906 84.7029 91.8426 84.7029C92.0826 84.7029 92.2806 84.6189 92.4366 84.4509C92.5926 84.2829 92.7306 84.0129 92.8506 83.6409L96.1986 72.0309H98.6826ZM105.688 83.3349C104.644 83.3349 103.732 83.1009 102.952 82.6329C102.184 82.1529 101.584 81.4809 101.152 80.6169C100.732 79.7409 100.522 78.7089 100.522 77.5209C100.522 76.3329 100.732 75.3069 101.152 74.4429C101.584 73.5669 102.184 72.8949 102.952 72.4269C103.732 71.9469 104.644 71.7069 105.688 71.7069C106.744 71.7069 107.656 71.9469 108.424 72.4269C109.192 72.8949 109.786 73.5669 110.206 74.4429C110.638 75.3069 110.854 76.3329 110.854 77.5209C110.854 78.7089 110.638 79.7409 110.206 80.6169C109.786 81.4809 109.192 82.1529 108.424 82.6329C107.656 83.1009 106.744 83.3349 105.688 83.3349ZM105.688 80.9949C106.528 80.9949 107.176 80.6889 107.632 80.0769C108.088 79.4649 108.316 78.6129 108.316 77.5209C108.316 76.4289 108.088 75.5769 107.632 74.9649C107.176 74.3529 106.528 74.0469 105.688 74.0469C104.86 74.0469 104.212 74.3529 103.744 74.9649C103.288 75.5769 103.06 76.4289 103.06 77.5209C103.06 78.6129 103.288 79.4649 103.744 80.0769C104.212 80.6889 104.86 80.9949 105.688 80.9949ZM122.666 72.0309V83.0109H120.074V82.0749H119.444C119.192 82.4709 118.85 82.7829 118.418 83.0109C117.986 83.2269 117.5 83.3349 116.96 83.3349C116.216 83.3349 115.574 83.1669 115.034 82.8309C114.506 82.4829 114.098 81.9909 113.81 81.3549C113.522 80.7069 113.378 79.9389 113.378 79.0509V72.0309H115.97V78.4029C115.97 79.2189 116.144 79.8429 116.492 80.2749C116.84 80.6949 117.35 80.9049 118.022 80.9049C118.694 80.9049 119.204 80.6949 119.552 80.2749C119.9 79.8429 120.074 79.2189 120.074 78.4029V72.0309H122.666ZM125.747 72.0309H130.319V72.9669H130.949C131.153 72.5709 131.447 72.2649 131.831 72.0489C132.227 71.8329 132.677 71.7249 133.181 71.7249C134.057 71.7249 134.723 72.0489 135.179 72.6969C135.647 73.3329 135.881 74.2629 135.881 75.4869V77.1789H133.235V75.8289C133.235 74.7489 132.821 74.2089 131.993 74.2089C131.465 74.2089 131.075 74.4489 130.823 74.9289C130.571 75.3969 130.445 76.1109 130.445 77.0709V80.6709H133.649V83.0109H125.999V80.6709H127.925V74.3709H125.747V72.0309ZM1.026 95.0309H3.546V96.0929H5.094L3.978 96.8489C4.002 96.1649 4.17 95.6369 4.482 95.2649C4.794 94.8929 5.22 94.7069 5.76 94.7069C6.264 94.7069 6.666 94.9049 6.966 95.3009C7.278 95.6969 7.458 96.2489 7.506 96.9569L6.48 96.1289H8.928L7.812 96.8669C7.848 96.1829 8.028 95.6549 8.352 95.2829C8.688 94.8989 9.132 94.7069 9.684 94.7069C10.296 94.7069 10.77 94.9649 11.106 95.4809C11.454 95.9969 11.628 96.7109 11.628 97.6229V106.011H9.288V98.6129C9.288 98.2289 9.21 97.9409 9.054 97.7489C8.91 97.5449 8.688 97.4429 8.388 97.4429C8.1 97.4429 7.878 97.5449 7.722 97.7489C7.578 97.9409 7.506 98.2289 7.506 98.6129V106.011H5.166V98.6129C5.166 98.2289 5.088 97.9409 4.932 97.7489C4.776 97.5449 4.554 97.4429 4.266 97.4429C3.978 97.4429 3.756 97.5449 3.6 97.7489C3.456 97.9409 3.384 98.2289 3.384 98.6129V106.011H1.026V95.0309ZM15.8795 99.3869H22.1435L21.2795 100.413C21.2795 99.2849 21.0815 98.4329 20.6855 97.8569C20.2895 97.2689 19.7015 96.9749 18.9215 96.9749C18.0935 96.9749 17.4575 97.2809 17.0135 97.8929C16.5815 98.4929 16.3655 99.3449 16.3655 100.449C16.3655 101.637 16.5815 102.537 17.0135 103.149C17.4575 103.761 18.1175 104.067 18.9935 104.067C19.5095 104.067 19.9655 103.947 20.3615 103.707C20.7695 103.455 21.1115 103.089 21.3875 102.609H23.8535C23.6375 103.389 23.2955 104.061 22.8275 104.625C22.3715 105.177 21.8135 105.603 21.1535 105.903C20.4935 106.191 19.7555 106.335 18.9395 106.335C17.8835 106.335 16.9775 106.101 16.2215 105.633C15.4655 105.165 14.8835 104.493 14.4755 103.617C14.0675 102.741 13.8635 101.685 13.8635 100.449C13.8635 99.2729 14.0735 98.2589 14.4935 97.4069C14.9135 96.5429 15.5015 95.8769 16.2575 95.4089C17.0135 94.9409 17.9015 94.7069 18.9215 94.7069C19.9055 94.7069 20.7455 94.9349 21.4415 95.3909C22.1375 95.8349 22.6715 96.4829 23.0435 97.3349C23.4155 98.1749 23.6015 99.1949 23.6015 100.395C23.6015 100.575 23.5955 100.743 23.5835 100.899C23.5715 101.055 23.5595 101.211 23.5475 101.367H15.8795V99.3869ZM25.873 95.0309H28.393V96.0929H29.941L28.825 96.8489C28.849 96.1649 29.017 95.6369 29.329 95.2649C29.641 94.8929 30.067 94.7069 30.607 94.7069C31.111 94.7069 31.513 94.9049 31.813 95.3009C32.125 95.6969 32.305 96.2489 32.353 96.9569L31.327 96.1289H33.775L32.659 96.8669C32.695 96.1829 32.875 95.6549 33.199 95.2829C33.535 94.8989 33.979 94.7069 34.531 94.7069C35.143 94.7069 35.617 94.9649 35.953 95.4809C36.301 95.9969 36.475 96.7109 36.475 97.6229V106.011H34.135V98.6129C34.135 98.2289 34.057 97.9409 33.901 97.7489C33.757 97.5449 33.535 97.4429 33.235 97.4429C32.947 97.4429 32.725 97.5449 32.569 97.7489C32.425 97.9409 32.353 98.2289 32.353 98.6129V106.011H30.013V98.6129C30.013 98.2289 29.935 97.9409 29.779 97.7489C29.623 97.5449 29.401 97.4429 29.113 97.4429C28.825 97.4429 28.603 97.5449 28.447 97.7489C28.303 97.9409 28.231 98.2289 28.231 98.6129V106.011H25.873V95.0309ZM44.6145 106.299C44.0625 106.299 43.5585 106.179 43.1025 105.939C42.6465 105.699 42.3105 105.381 42.0945 104.985H41.4645V106.011H38.8725V90.7469H41.4645V96.0569H42.0945C42.3105 95.6489 42.6465 95.3309 43.1025 95.1029C43.5585 94.8629 44.0625 94.7429 44.6145 94.7429C45.5145 94.7429 46.2945 94.9829 46.9545 95.4629C47.6145 95.9309 48.1245 96.5969 48.4845 97.4609C48.8445 98.3129 49.0245 99.3329 49.0245 100.521C49.0245 101.709 48.8445 102.735 48.4845 103.599C48.1245 104.463 47.6145 105.129 46.9545 105.597C46.2945 106.065 45.5145 106.299 44.6145 106.299ZM43.9125 103.959C44.7285 103.959 45.3645 103.659 45.8205 103.059C46.2765 102.447 46.5045 101.601 46.5045 100.521C46.5045 99.4409 46.2765 98.6009 45.8205 98.0009C45.3645 97.3889 44.7285 97.0829 43.9125 97.0829C43.0845 97.0829 42.4425 97.3889 41.9865 98.0009C41.5425 98.6009 41.3205 99.4409 41.3205 100.521C41.3205 101.613 41.5425 102.459 41.9865 103.059C42.4425 103.659 43.0845 103.959 43.9125 103.959ZM53.1501 99.3869H59.4141L58.5501 100.413C58.5501 99.2849 58.3521 98.4329 57.9561 97.8569C57.5601 97.2689 56.9721 96.9749 56.1921 96.9749C55.3641 96.9749 54.7281 97.2809 54.2841 97.8929C53.8521 98.4929 53.6361 99.3449 53.6361 100.449C53.6361 101.637 53.8521 102.537 54.2841 103.149C54.7281 103.761 55.3881 104.067 56.2641 104.067C56.7801 104.067 57.2361 103.947 57.6321 103.707C58.0401 103.455 58.3821 103.089 58.6581 102.609H61.1241C60.9081 103.389 60.5661 104.061 60.0981 104.625C59.6421 105.177 59.0841 105.603 58.4241 105.903C57.7641 106.191 57.0261 106.335 56.2101 106.335C55.1541 106.335 54.2481 106.101 53.4921 105.633C52.7361 105.165 52.1541 104.493 51.7461 103.617C51.3381 102.741 51.1341 101.685 51.1341 100.449C51.1341 99.2729 51.3441 98.2589 51.7641 97.4069C52.1841 96.5429 52.7721 95.8769 53.5281 95.4089C54.2841 94.9409 55.1721 94.7069 56.1921 94.7069C57.1761 94.7069 58.0161 94.9349 58.7121 95.3909C59.4081 95.8349 59.9421 96.4829 60.3141 97.3349C60.6861 98.1749 60.8721 99.1949 60.8721 100.395C60.8721 100.575 60.8661 100.743 60.8541 100.899C60.8421 101.055 60.8301 101.211 60.8181 101.367H53.1501V99.3869ZM63.6296 95.0309H68.2016V95.9669H68.8316C69.0356 95.5709 69.3296 95.2649 69.7136 95.0489C70.1096 94.8329 70.5596 94.7249 71.0636 94.7249C71.9396 94.7249 72.6056 95.0489 73.0616 95.6969C73.5296 96.3329 73.7636 97.2629 73.7636 98.4869V100.179H71.1176V98.8289C71.1176 97.7489 70.7036 97.2089 69.8756 97.2089C69.3476 97.2089 68.9576 97.4489 68.7056 97.9289C68.4536 98.3969 68.3276 99.1109 68.3276 100.071V103.671H71.5316V106.011H63.8816V103.671H65.8076V97.3709H63.6296V95.0309ZM78.7171 102.609C78.8851 103.077 79.1611 103.437 79.5451 103.689C79.9291 103.929 80.4211 104.049 81.0211 104.049C81.6571 104.049 82.1431 103.947 82.4791 103.743C82.8151 103.539 82.9831 103.251 82.9831 102.879C82.9831 102.579 82.8571 102.345 82.6051 102.177C82.3531 101.997 81.9691 101.871 81.4531 101.799L79.9411 101.619C78.7291 101.463 77.8231 101.115 77.2231 100.575C76.6351 100.035 76.3411 99.2729 76.3411 98.2889C76.3411 97.1729 76.7431 96.2969 77.5471 95.6609C78.3631 95.0249 79.4911 94.7069 80.9311 94.7069C82.4311 94.7069 83.5951 95.0489 84.4231 95.7329C85.2631 96.4049 85.7131 97.3769 85.7731 98.6489H83.3791C83.2351 98.1089 82.9591 97.7009 82.5511 97.4249C82.1431 97.1369 81.5971 96.9929 80.9131 96.9929C80.2411 96.9929 79.7251 97.1009 79.3651 97.3169C79.0171 97.5209 78.8431 97.8149 78.8431 98.1989C78.8431 98.4869 78.9691 98.7209 79.2211 98.9009C79.4731 99.0689 79.8571 99.1829 80.3731 99.2429L81.8851 99.4409C83.1091 99.5849 84.0151 99.9329 84.6031 100.485C85.1911 101.025 85.4851 101.781 85.4851 102.753C85.4851 103.497 85.3051 104.139 84.9451 104.679C84.5971 105.207 84.0871 105.615 83.4151 105.903C82.7551 106.191 81.9511 106.335 81.0031 106.335C79.5631 106.335 78.4411 106.017 77.6371 105.381C76.8331 104.733 76.3831 103.809 76.2871 102.609H78.7171ZM88.7106 106.011V90.7469H91.3026V95.9849H91.9326C92.1846 95.5769 92.5266 95.2649 92.9586 95.0489C93.3906 94.8209 93.8766 94.7069 94.4166 94.7069C95.1606 94.7069 95.7966 94.8809 96.3246 95.2289C96.8646 95.5649 97.2786 96.0569 97.5666 96.7049C97.8546 97.3409 97.9986 98.1029 97.9986 98.9909V106.011H95.4066V99.6389C95.4066 98.8229 95.2326 98.2049 94.8846 97.7849C94.5366 97.3529 94.0266 97.1369 93.3546 97.1369C92.6826 97.1369 92.1726 97.3529 91.8246 97.7849C91.4766 98.2049 91.3026 98.8229 91.3026 99.6389V106.011H88.7106ZM101.746 95.0309H107.596V103.671H110.854V106.011H101.746V103.671H105.004V97.3709H101.746V95.0309ZM106.156 93.6269C105.604 93.6269 105.178 93.4829 104.878 93.1949C104.578 92.9069 104.428 92.5049 104.428 91.9889C104.428 91.4609 104.578 91.0589 104.878 90.7829C105.178 90.4949 105.604 90.3509 106.156 90.3509C106.708 90.3509 107.134 90.4949 107.434 90.7829C107.734 91.0709 107.884 91.4729 107.884 91.9889C107.884 92.5049 107.734 92.9069 107.434 93.1949C107.134 93.4829 106.708 93.6269 106.156 93.6269ZM113.414 109.611V95.0309H116.006V96.0569H116.636C116.852 95.6489 117.188 95.3309 117.644 95.1029C118.1 94.8629 118.604 94.7429 119.156 94.7429C120.056 94.7429 120.836 94.9829 121.496 95.4629C122.156 95.9309 122.666 96.5969 123.026 97.4609C123.386 98.3129 123.566 99.3329 123.566 100.521C123.566 101.709 123.386 102.735 123.026 103.599C122.666 104.463 122.156 105.129 121.496 105.597C120.836 106.065 120.056 106.299 119.156 106.299C118.604 106.299 118.1 106.179 117.644 105.939C117.188 105.699 116.852 105.381 116.636 104.985H116.006V109.611H113.414ZM118.454 103.959C119.27 103.959 119.906 103.659 120.362 103.059C120.818 102.447 121.046 101.601 121.046 100.521C121.046 99.4409 120.818 98.6009 120.362 98.0009C119.906 97.3889 119.27 97.0829 118.454 97.0829C117.626 97.0829 116.984 97.3889 116.528 98.0009C116.084 98.6009 115.862 99.4409 115.862 100.521C115.862 101.613 116.084 102.459 116.528 103.059C116.984 103.659 117.626 103.959 118.454 103.959ZM142.743 92.1869V95.0309H147.585V97.3709H142.743V102.267C142.743 102.831 142.851 103.263 143.067 103.563C143.283 103.851 143.601 103.995 144.021 103.995C144.453 103.995 144.795 103.827 145.047 103.491C145.311 103.155 145.515 102.621 145.659 101.889H147.945C147.885 103.329 147.507 104.433 146.811 105.201C146.127 105.957 145.173 106.335 143.949 106.335C142.725 106.335 141.783 105.987 141.123 105.291C140.475 104.583 140.151 103.587 140.151 102.303V97.3709H137.973V95.0309H140.151V92.1869H142.743ZM151.44 95.0309H157.29V103.671H160.548V106.011H151.44V103.671H154.698V97.3709H151.44V95.0309ZM155.85 93.6269C155.298 93.6269 154.872 93.4829 154.572 93.1949C154.272 92.9069 154.122 92.5049 154.122 91.9889C154.122 91.4609 154.272 91.0589 154.572 90.7829C154.872 90.4949 155.298 90.3509 155.85 90.3509C156.402 90.3509 156.828 90.4949 157.128 90.7829C157.428 91.0709 157.578 91.4729 157.578 91.9889C157.578 92.5049 157.428 92.9069 157.128 93.1949C156.828 93.4829 156.402 93.6269 155.85 93.6269ZM164.962 99.3869H171.226L170.362 100.413C170.362 99.2849 170.164 98.4329 169.768 97.8569C169.372 97.2689 168.784 96.9749 168.004 96.9749C167.176 96.9749 166.54 97.2809 166.096 97.8929C165.664 98.4929 165.448 99.3449 165.448 100.449C165.448 101.637 165.664 102.537 166.096 103.149C166.54 103.761 167.2 104.067 168.076 104.067C168.592 104.067 169.048 103.947 169.444 103.707C169.852 103.455 170.194 103.089 170.47 102.609H172.936C172.72 103.389 172.378 104.061 171.91 104.625C171.454 105.177 170.896 105.603 170.236 105.903C169.576 106.191 168.838 106.335 168.022 106.335C166.966 106.335 166.06 106.101 165.304 105.633C164.548 105.165 163.966 104.493 163.558 103.617C163.15 102.741 162.946 101.685 162.946 100.449C162.946 99.2729 163.156 98.2589 163.576 97.4069C163.996 96.5429 164.584 95.8769 165.34 95.4089C166.096 94.9409 166.984 94.7069 168.004 94.7069C168.988 94.7069 169.828 94.9349 170.524 95.3909C171.22 95.8349 171.754 96.4829 172.126 97.3349C172.498 98.1749 172.684 99.1949 172.684 100.395C172.684 100.575 172.678 100.743 172.666 100.899C172.654 101.055 172.642 101.211 172.63 101.367H164.962V99.3869ZM175.441 95.0309H180.013V95.9669H180.643C180.847 95.5709 181.141 95.2649 181.525 95.0489C181.921 94.8329 182.371 94.7249 182.875 94.7249C183.751 94.7249 184.417 95.0489 184.873 95.6969C185.341 96.3329 185.575 97.2629 185.575 98.4869V100.179H182.929V98.8289C182.929 97.7489 182.515 97.2089 181.687 97.2089C181.159 97.2089 180.769 97.4489 180.517 97.9289C180.265 98.3969 180.139 99.1109 180.139 100.071V103.671H183.343V106.011H175.693V103.671H177.619V97.3709H175.441V95.0309Z" fill="#062630"/>
<rect x="275.5" y="1.01091" width="38" height="38" rx="3" stroke="#062630" stroke-width="2"/>
<path d="M288.64 25.4549L295.336 20.4389C296.264 19.7509 296.944 19.0469 297.376 18.3269C297.808 17.5909 298.024 16.7989 298.024 15.9509C298.024 14.8789 297.72 14.0389 297.112 13.4309C296.504 12.8069 295.664 12.4949 294.592 12.4949C293.584 12.4949 292.76 12.8069 292.12 13.4309C291.48 14.0549 291.032 14.9669 290.776 16.1669H288.136C288.2 14.8709 288.52 13.7589 289.096 12.8309C289.688 11.8869 290.456 11.1669 291.4 10.6709C292.36 10.1749 293.424 9.92691 294.592 9.92691C295.84 9.92691 296.92 10.1829 297.832 10.6949C298.76 11.1909 299.48 11.8869 299.992 12.7829C300.504 13.6789 300.76 14.7349 300.76 15.9509C300.76 17.1989 300.44 18.3589 299.8 19.4309C299.16 20.5029 298.192 21.5109 296.896 22.4549L290.968 26.7029V26.9429H300.376V29.5109H288.64V25.4549Z" fill="#062630"/>
<path d="M280.242 83.2989C278.742 83.2989 277.578 82.6629 276.75 81.3909C275.922 80.1069 275.508 78.2469 275.508 75.8109C275.508 73.3269 275.976 71.4549 276.912 70.1949C277.86 68.9229 279.252 68.2869 281.088 68.2869C282.096 68.2869 282.96 68.4909 283.68 68.8989C284.412 69.2949 284.988 69.8769 285.408 70.6449C285.84 71.4009 286.092 72.3189 286.164 73.3989H283.644C283.476 72.5349 283.176 71.8809 282.744 71.4369C282.324 70.9929 281.772 70.7709 281.088 70.7709C280.116 70.7709 279.39 71.1849 278.91 72.0129C278.442 72.8289 278.208 74.0949 278.208 75.8109C278.208 77.5989 278.442 78.9129 278.91 79.7529C279.378 80.5929 280.116 81.0129 281.124 81.0129C281.58 81.0129 281.988 80.8809 282.348 80.6169C282.72 80.3529 283.008 79.9929 283.212 79.5369C283.428 79.0689 283.536 78.5529 283.536 77.9889H280.764V75.5589H285.876V83.0109H283.536V81.8409H282.906C282.726 82.2969 282.402 82.6569 281.934 82.9209C281.466 83.1729 280.902 83.2989 280.242 83.2989ZM290.38 76.3869H296.644L295.78 77.4129C295.78 76.2849 295.582 75.4329 295.186 74.8569C294.79 74.2689 294.202 73.9749 293.422 73.9749C292.594 73.9749 291.958 74.2809 291.514 74.8929C291.082 75.4929 290.866 76.3449 290.866 77.4489C290.866 78.6369 291.082 79.5369 291.514 80.1489C291.958 80.7609 292.618 81.0669 293.494 81.0669C294.01 81.0669 294.466 80.9469 294.862 80.7069C295.27 80.4549 295.612 80.0889 295.888 79.6089H298.354C298.138 80.3889 297.796 81.0609 297.328 81.6249C296.872 82.1769 296.314 82.6029 295.654 82.9029C294.994 83.1909 294.256 83.3349 293.44 83.3349C292.384 83.3349 291.478 83.1009 290.722 82.6329C289.966 82.1649 289.384 81.4929 288.976 80.6169C288.568 79.7409 288.364 78.6849 288.364 77.4489C288.364 76.2729 288.574 75.2589 288.994 74.4069C289.414 73.5429 290.002 72.8769 290.758 72.4089C291.514 71.9409 292.402 71.7069 293.422 71.7069C294.406 71.7069 295.246 71.9349 295.942 72.3909C296.638 72.8349 297.172 73.4829 297.544 74.3349C297.916 75.1749 298.102 76.1949 298.102 77.3949C298.102 77.5749 298.096 77.7429 298.084 77.8989C298.072 78.0549 298.06 78.2109 298.048 78.3669H290.38V76.3869ZM305.431 69.1869V72.0309H310.273V74.3709H305.431V79.2669C305.431 79.8309 305.539 80.2629 305.755 80.5629C305.971 80.8509 306.289 80.9949 306.709 80.9949C307.141 80.9949 307.483 80.8269 307.735 80.4909C307.999 80.1549 308.203 79.6209 308.347 78.8889H310.633C310.573 80.3289 310.195 81.4329 309.499 82.2009C308.815 82.9569 307.861 83.3349 306.637 83.3349C305.413 83.3349 304.471 82.9869 303.811 82.2909C303.163 81.5829 302.839 80.5869 302.839 79.3029V74.3709H300.661V72.0309H302.839V69.1869H305.431ZM325.13 72.0309H327.812L330.422 80.0229H331.898L331.322 82.1109H328.496L325.13 72.0309ZM335.912 72.0309L332.33 84.3069C332.078 85.1469 331.676 85.7949 331.124 86.2509C330.572 86.7069 329.9 86.9349 329.108 86.9349C328.1 86.9349 327.308 86.6589 326.732 86.1069C326.156 85.5549 325.82 84.7389 325.724 83.6589H328.01C328.142 84.0309 328.286 84.2949 328.442 84.4509C328.61 84.6189 328.82 84.7029 329.072 84.7029C329.312 84.7029 329.51 84.6189 329.666 84.4509C329.822 84.2829 329.96 84.0129 330.08 83.6409L333.428 72.0309H335.912ZM342.918 83.3349C341.874 83.3349 340.962 83.1009 340.182 82.6329C339.414 82.1529 338.814 81.4809 338.382 80.6169C337.962 79.7409 337.752 78.7089 337.752 77.5209C337.752 76.3329 337.962 75.3069 338.382 74.4429C338.814 73.5669 339.414 72.8949 340.182 72.4269C340.962 71.9469 341.874 71.7069 342.918 71.7069C343.974 71.7069 344.886 71.9469 345.654 72.4269C346.422 72.8949 347.016 73.5669 347.436 74.4429C347.868 75.3069 348.084 76.3329 348.084 77.5209C348.084 78.7089 347.868 79.7409 347.436 80.6169C347.016 81.4809 346.422 82.1529 345.654 82.6329C344.886 83.1009 343.974 83.3349 342.918 83.3349ZM342.918 80.9949C343.758 80.9949 344.406 80.6889 344.862 80.0769C345.318 79.4649 345.546 78.6129 345.546 77.5209C345.546 76.4289 345.318 75.5769 344.862 74.9649C344.406 74.3529 343.758 74.0469 342.918 74.0469C342.09 74.0469 341.442 74.3529 340.974 74.9649C340.518 75.5769 340.29 76.4289 340.29 77.5209C340.29 78.6129 340.518 79.4649 340.974 80.0769C341.442 80.6889 342.09 80.9949 342.918 80.9949ZM359.895 72.0309V83.0109H357.303V82.0749H356.673C356.421 82.4709 356.079 82.7829 355.647 83.0109C355.215 83.2269 354.729 83.3349 354.189 83.3349C353.445 83.3349 352.803 83.1669 352.263 82.8309C351.735 82.4829 351.327 81.9909 351.039 81.3549C350.751 80.7069 350.607 79.9389 350.607 79.0509V72.0309H353.199V78.4029C353.199 79.2189 353.373 79.8429 353.721 80.2749C354.069 80.6949 354.579 80.9049 355.251 80.9049C355.923 80.9049 356.433 80.6949 356.781 80.2749C357.129 79.8429 357.303 79.2189 357.303 78.4029V72.0309H359.895ZM362.977 72.0309H367.549V72.9669H368.179C368.383 72.5709 368.677 72.2649 369.061 72.0489C369.457 71.8329 369.907 71.7249 370.411 71.7249C371.287 71.7249 371.953 72.0489 372.409 72.6969C372.877 73.3329 373.111 74.2629 373.111 75.4869V77.1789H370.465V75.8289C370.465 74.7489 370.051 74.2089 369.223 74.2089C368.695 74.2089 368.305 74.4489 368.053 74.9289C367.801 75.3969 367.675 76.1109 367.675 77.0709V80.6709H370.879V83.0109H363.229V80.6709H365.155V74.3709H362.977V72.0309ZM387.338 72.0309H389.858V73.0929H391.406L390.29 73.8489C390.314 73.1649 390.482 72.6369 390.794 72.2649C391.106 71.8929 391.532 71.7069 392.072 71.7069C392.576 71.7069 392.978 71.9049 393.278 72.3009C393.59 72.6969 393.77 73.2489 393.818 73.9569L392.792 73.1289H395.24L394.124 73.8669C394.16 73.1829 394.34 72.6549 394.664 72.2829C395 71.8989 395.444 71.7069 395.996 71.7069C396.608 71.7069 397.082 71.9649 397.418 72.4809C397.766 72.9969 397.94 73.7109 397.94 74.6229V83.0109H395.6V75.6129C395.6 75.2289 395.522 74.9409 395.366 74.7489C395.222 74.5449 395 74.4429 394.7 74.4429C394.412 74.4429 394.19 74.5449 394.034 74.7489C393.89 74.9409 393.818 75.2289 393.818 75.6129V83.0109H391.478V75.6129C391.478 75.2289 391.4 74.9409 391.244 74.7489C391.088 74.5449 390.866 74.4429 390.578 74.4429C390.29 74.4429 390.068 74.5449 389.912 74.7489C389.768 74.9409 389.696 75.2289 389.696 75.6129V83.0109H387.338V72.0309ZM405.035 83.3349C403.991 83.3349 403.079 83.1009 402.299 82.6329C401.531 82.1529 400.931 81.4809 400.499 80.6169C400.079 79.7409 399.869 78.7089 399.869 77.5209C399.869 76.3329 400.079 75.3069 400.499 74.4429C400.931 73.5669 401.531 72.8949 402.299 72.4269C403.079 71.9469 403.991 71.7069 405.035 71.7069C406.091 71.7069 407.003 71.9469 407.771 72.4269C408.539 72.8949 409.133 73.5669 409.553 74.4429C409.985 75.3069 410.201 76.3329 410.201 77.5209C410.201 78.7089 409.985 79.7409 409.553 80.6169C409.133 81.4809 408.539 82.1529 407.771 82.6329C407.003 83.1009 406.091 83.3349 405.035 83.3349ZM405.035 80.9949C405.875 80.9949 406.523 80.6889 406.979 80.0769C407.435 79.4649 407.663 78.6129 407.663 77.5209C407.663 76.4289 407.435 75.5769 406.979 74.9649C406.523 74.3529 405.875 74.0469 405.035 74.0469C404.207 74.0469 403.559 74.3529 403.091 74.9649C402.635 75.5769 402.407 76.4289 402.407 77.5209C402.407 78.6129 402.635 79.4649 403.091 80.0769C403.559 80.6889 404.207 80.9949 405.035 80.9949ZM412.905 83.0109V72.0309H415.497V72.9849H416.127C416.379 72.5769 416.721 72.2649 417.153 72.0489C417.585 71.8209 418.071 71.7069 418.611 71.7069C419.355 71.7069 419.991 71.8809 420.519 72.2289C421.059 72.5649 421.473 73.0569 421.761 73.7049C422.049 74.3409 422.193 75.1029 422.193 75.9909V83.0109H419.601V76.6389C419.601 75.8229 419.427 75.2049 419.079 74.7849C418.731 74.3529 418.221 74.1369 417.549 74.1369C416.877 74.1369 416.367 74.3529 416.019 74.7849C415.671 75.2049 415.497 75.8229 415.497 76.6389V83.0109H412.905ZM429.666 69.1869V72.0309H434.508V74.3709H429.666V79.2669C429.666 79.8309 429.774 80.2629 429.99 80.5629C430.206 80.8509 430.524 80.9949 430.944 80.9949C431.376 80.9949 431.718 80.8269 431.97 80.4909C432.234 80.1549 432.438 79.6209 432.582 78.8889H434.868C434.808 80.3289 434.43 81.4329 433.734 82.2009C433.05 82.9569 432.096 83.3349 430.872 83.3349C429.648 83.3349 428.706 82.9869 428.046 82.2909C427.398 81.5829 427.074 80.5869 427.074 79.3029V74.3709H424.896V72.0309H427.074V69.1869H429.666ZM437.752 83.0109V67.7469H440.344V72.9849H440.974C441.226 72.5769 441.568 72.2649 442 72.0489C442.432 71.8209 442.918 71.7069 443.458 71.7069C444.202 71.7069 444.838 71.8809 445.366 72.2289C445.906 72.5649 446.32 73.0569 446.608 73.7049C446.896 74.3409 447.04 75.1029 447.04 75.9909V83.0109H444.448V76.6389C444.448 75.8229 444.274 75.2049 443.926 74.7849C443.578 74.3529 443.068 74.1369 442.396 74.1369C441.724 74.1369 441.214 74.3529 440.866 74.7849C440.518 75.2049 440.344 75.8229 440.344 76.6389V83.0109H437.752ZM450.499 67.7469H456.331V80.6709H459.589V83.0109H450.499V80.6709H453.739V70.0869H450.499V67.7469ZM461.789 72.0309H464.471L467.081 80.0229H468.557L467.981 82.1109H465.155L461.789 72.0309ZM472.571 72.0309L468.989 84.3069C468.737 85.1469 468.335 85.7949 467.783 86.2509C467.231 86.7069 466.559 86.9349 465.767 86.9349C464.759 86.9349 463.967 86.6589 463.391 86.1069C462.815 85.5549 462.479 84.7389 462.383 83.6589H464.669C464.801 84.0309 464.945 84.2949 465.101 84.4509C465.269 84.6189 465.479 84.7029 465.731 84.7029C465.971 84.7029 466.169 84.6189 466.325 84.4509C466.481 84.2829 466.619 84.0129 466.739 83.6409L470.087 72.0309H472.571ZM281.844 106.299C281.292 106.299 280.788 106.179 280.332 105.939C279.876 105.699 279.54 105.381 279.324 104.985H278.694V106.011H276.102V90.7469H278.694V96.0569H279.324C279.54 95.6489 279.876 95.3309 280.332 95.1029C280.788 94.8629 281.292 94.7429 281.844 94.7429C282.744 94.7429 283.524 94.9829 284.184 95.4629C284.844 95.9309 285.354 96.5969 285.714 97.4609C286.074 98.3129 286.254 99.3329 286.254 100.521C286.254 101.709 286.074 102.735 285.714 103.599C285.354 104.463 284.844 105.129 284.184 105.597C283.524 106.065 282.744 106.299 281.844 106.299ZM281.142 103.959C281.958 103.959 282.594 103.659 283.05 103.059C283.506 102.447 283.734 101.601 283.734 100.521C283.734 99.4409 283.506 98.6009 283.05 98.0009C282.594 97.3889 281.958 97.0829 281.142 97.0829C280.314 97.0829 279.672 97.3889 279.216 98.0009C278.772 98.6009 278.55 99.4409 278.55 100.521C278.55 101.613 278.772 102.459 279.216 103.059C279.672 103.659 280.314 103.959 281.142 103.959ZM293.224 106.335C292.18 106.335 291.268 106.101 290.488 105.633C289.72 105.153 289.12 104.481 288.688 103.617C288.268 102.741 288.058 101.709 288.058 100.521C288.058 99.3329 288.268 98.3069 288.688 97.4429C289.12 96.5669 289.72 95.8949 290.488 95.4269C291.268 94.9469 292.18 94.7069 293.224 94.7069C294.28 94.7069 295.192 94.9469 295.96 95.4269C296.728 95.8949 297.322 96.5669 297.742 97.4429C298.174 98.3069 298.39 99.3329 298.39 100.521C298.39 101.709 298.174 102.741 297.742 103.617C297.322 104.481 296.728 105.153 295.96 105.633C295.192 106.101 294.28 106.335 293.224 106.335ZM293.224 103.995C294.064 103.995 294.712 103.689 295.168 103.077C295.624 102.465 295.852 101.613 295.852 100.521C295.852 99.4289 295.624 98.5769 295.168 97.9649C294.712 97.3529 294.064 97.0469 293.224 97.0469C292.396 97.0469 291.748 97.3529 291.28 97.9649C290.824 98.5769 290.596 99.4289 290.596 100.521C290.596 101.613 290.824 102.465 291.28 103.077C291.748 103.689 292.396 103.995 293.224 103.995ZM305.647 106.335C304.603 106.335 303.691 106.101 302.911 105.633C302.143 105.153 301.543 104.481 301.111 103.617C300.691 102.741 300.481 101.709 300.481 100.521C300.481 99.3329 300.691 98.3069 301.111 97.4429C301.543 96.5669 302.143 95.8949 302.911 95.4269C303.691 94.9469 304.603 94.7069 305.647 94.7069C306.703 94.7069 307.615 94.9469 308.383 95.4269C309.151 95.8949 309.745 96.5669 310.165 97.4429C310.597 98.3069 310.813 99.3329 310.813 100.521C310.813 101.709 310.597 102.741 310.165 103.617C309.745 104.481 309.151 105.153 308.383 105.633C307.615 106.101 306.703 106.335 305.647 106.335ZM305.647 103.995C306.487 103.995 307.135 103.689 307.591 103.077C308.047 102.465 308.275 101.613 308.275 100.521C308.275 99.4289 308.047 98.5769 307.591 97.9649C307.135 97.3529 306.487 97.0469 305.647 97.0469C304.819 97.0469 304.171 97.3529 303.703 97.9649C303.247 98.5769 303.019 99.4289 303.019 100.521C303.019 101.613 303.247 102.465 303.703 103.077C304.171 103.689 304.819 103.995 305.647 103.995ZM320.375 106.011L316.127 100.683L320.609 95.0309H323.579L319.169 100.557L323.525 106.011H320.375ZM314.183 106.011V90.7469H316.775V106.011H314.183ZM340.794 102.609C340.962 103.077 341.238 103.437 341.622 103.689C342.006 103.929 342.498 104.049 343.098 104.049C343.734 104.049 344.22 103.947 344.556 103.743C344.892 103.539 345.06 103.251 345.06 102.879C345.06 102.579 344.934 102.345 344.682 102.177C344.43 101.997 344.046 101.871 343.53 101.799L342.018 101.619C340.806 101.463 339.9 101.115 339.3 100.575C338.712 100.035 338.418 99.2729 338.418 98.2889C338.418 97.1729 338.82 96.2969 339.624 95.6609C340.44 95.0249 341.568 94.7069 343.008 94.7069C344.508 94.7069 345.672 95.0489 346.5 95.7329C347.34 96.4049 347.79 97.3769 347.85 98.6489H345.456C345.312 98.1089 345.036 97.7009 344.628 97.4249C344.22 97.1369 343.674 96.9929 342.99 96.9929C342.318 96.9929 341.802 97.1009 341.442 97.3169C341.094 97.5209 340.92 97.8149 340.92 98.1989C340.92 98.4869 341.046 98.7209 341.298 98.9009C341.55 99.0689 341.934 99.1829 342.45 99.2429L343.962 99.4409C345.186 99.5849 346.092 99.9329 346.68 100.485C347.268 101.025 347.562 101.781 347.562 102.753C347.562 103.497 347.382 104.139 347.022 104.679C346.674 105.207 346.164 105.615 345.492 105.903C344.832 106.191 344.028 106.335 343.08 106.335C341.64 106.335 340.518 106.017 339.714 105.381C338.91 104.733 338.46 103.809 338.364 102.609H340.794ZM352.497 99.3869H358.761L357.897 100.413C357.897 99.2849 357.699 98.4329 357.303 97.8569C356.907 97.2689 356.319 96.9749 355.539 96.9749C354.711 96.9749 354.075 97.2809 353.631 97.8929C353.199 98.4929 352.983 99.3449 352.983 100.449C352.983 101.637 353.199 102.537 353.631 103.149C354.075 103.761 354.735 104.067 355.611 104.067C356.127 104.067 356.583 103.947 356.979 103.707C357.387 103.455 357.729 103.089 358.005 102.609H360.471C360.255 103.389 359.913 104.061 359.445 104.625C358.989 105.177 358.431 105.603 357.771 105.903C357.111 106.191 356.373 106.335 355.557 106.335C354.501 106.335 353.595 106.101 352.839 105.633C352.083 105.165 351.501 104.493 351.093 103.617C350.685 102.741 350.481 101.685 350.481 100.449C350.481 99.2729 350.691 98.2589 351.111 97.4069C351.531 96.5429 352.119 95.8769 352.875 95.4089C353.631 94.9409 354.519 94.7069 355.539 94.7069C356.523 94.7069 357.363 94.9349 358.059 95.3909C358.755 95.8349 359.289 96.4829 359.661 97.3349C360.033 98.1749 360.219 99.1949 360.219 100.395C360.219 100.575 360.213 100.743 360.201 100.899C360.189 101.055 360.177 101.211 360.165 101.367H352.497V99.3869ZM363.535 90.7469H369.367V103.671H372.625V106.011H363.535V103.671H366.775V93.0869H363.535V90.7469ZM377.344 99.3869H383.608L382.744 100.413C382.744 99.2849 382.546 98.4329 382.15 97.8569C381.754 97.2689 381.166 96.9749 380.386 96.9749C379.558 96.9749 378.922 97.2809 378.478 97.8929C378.046 98.4929 377.83 99.3449 377.83 100.449C377.83 101.637 378.046 102.537 378.478 103.149C378.922 103.761 379.582 104.067 380.458 104.067C380.974 104.067 381.43 103.947 381.826 103.707C382.234 103.455 382.576 103.089 382.852 102.609H385.318C385.102 103.389 384.76 104.061 384.292 104.625C383.836 105.177 383.278 105.603 382.618 105.903C381.958 106.191 381.22 106.335 380.404 106.335C379.348 106.335 378.442 106.101 377.686 105.633C376.93 105.165 376.348 104.493 375.94 103.617C375.532 102.741 375.328 101.685 375.328 100.449C375.328 99.2729 375.538 98.2589 375.958 97.4069C376.378 96.5429 376.966 95.8769 377.722 95.4089C378.478 94.9409 379.366 94.7069 380.386 94.7069C381.37 94.7069 382.21 94.9349 382.906 95.3909C383.602 95.8349 384.136 96.4829 384.508 97.3349C384.88 98.1749 385.066 99.1949 385.066 100.395C385.066 100.575 385.06 100.743 385.048 100.899C385.036 101.055 385.024 101.211 385.012 101.367H377.344V99.3869ZM392.9 106.335C391.856 106.335 390.95 106.101 390.182 105.633C389.414 105.165 388.82 104.499 388.4 103.635C387.98 102.771 387.77 101.751 387.77 100.575C387.77 99.3749 387.986 98.3369 388.418 97.4609C388.85 96.5849 389.456 95.9069 390.236 95.4269C391.028 94.9469 391.958 94.7069 393.026 94.7069C393.974 94.7069 394.802 94.9049 395.51 95.3009C396.218 95.6849 396.776 96.2309 397.184 96.9389C397.592 97.6469 397.814 98.4869 397.85 99.4589H395.51C395.354 98.6909 395.054 98.0969 394.61 97.6769C394.178 97.2569 393.638 97.0469 392.99 97.0469C392.138 97.0469 391.472 97.3589 390.992 97.9829C390.524 98.5949 390.29 99.4589 390.29 100.575C390.29 101.655 390.518 102.495 390.974 103.095C391.442 103.695 392.084 103.995 392.9 103.995C393.488 103.995 393.986 103.815 394.394 103.455C394.802 103.095 395.09 102.591 395.258 101.943H397.616C397.544 102.831 397.298 103.605 396.878 104.265C396.47 104.925 395.924 105.435 395.24 105.795C394.556 106.155 393.776 106.335 392.9 106.335ZM404.819 92.1869V95.0309H409.661V97.3709H404.819V102.267C404.819 102.831 404.927 103.263 405.143 103.563C405.359 103.851 405.677 103.995 406.097 103.995C406.529 103.995 406.871 103.827 407.123 103.491C407.387 103.155 407.591 102.621 407.735 101.889H410.021C409.961 103.329 409.583 104.433 408.887 105.201C408.203 105.957 407.249 106.335 406.025 106.335C404.801 106.335 403.859 105.987 403.199 105.291C402.551 104.583 402.227 103.587 402.227 102.303V97.3709H400.049V95.0309H402.227V92.1869H404.819ZM413.517 95.0309H419.367V103.671H422.625V106.011H413.517V103.671H416.775V97.3709H413.517V95.0309ZM417.927 93.6269C417.375 93.6269 416.949 93.4829 416.649 93.1949C416.349 92.9069 416.199 92.5049 416.199 91.9889C416.199 91.4609 416.349 91.0589 416.649 90.7829C416.949 90.4949 417.375 90.3509 417.927 90.3509C418.479 90.3509 418.905 90.4949 419.205 90.7829C419.505 91.0709 419.655 91.4729 419.655 91.9889C419.655 92.5049 419.505 92.9069 419.205 93.1949C418.905 93.4829 418.479 93.6269 417.927 93.6269ZM429.882 106.335C428.838 106.335 427.926 106.101 427.146 105.633C426.378 105.153 425.778 104.481 425.346 103.617C424.926 102.741 424.716 101.709 424.716 100.521C424.716 99.3329 424.926 98.3069 425.346 97.4429C425.778 96.5669 426.378 95.8949 427.146 95.4269C427.926 94.9469 428.838 94.7069 429.882 94.7069C430.938 94.7069 431.85 94.9469 432.618 95.4269C433.386 95.8949 433.98 96.5669 434.4 97.4429C434.832 98.3069 435.048 99.3329 435.048 100.521C435.048 101.709 434.832 102.741 434.4 103.617C433.98 104.481 433.386 105.153 432.618 105.633C431.85 106.101 430.938 106.335 429.882 106.335ZM429.882 103.995C430.722 103.995 431.37 103.689 431.826 103.077C432.282 102.465 432.51 101.613 432.51 100.521C432.51 99.4289 432.282 98.5769 431.826 97.9649C431.37 97.3529 430.722 97.0469 429.882 97.0469C429.054 97.0469 428.406 97.3529 427.938 97.9649C427.482 98.5769 427.254 99.4289 427.254 100.521C427.254 101.613 427.482 102.465 427.938 103.077C428.406 103.689 429.054 103.995 429.882 103.995ZM437.752 106.011V95.0309H440.344V95.9849H440.974C441.226 95.5769 441.568 95.2649 442 95.0489C442.432 94.8209 442.918 94.7069 443.458 94.7069C444.202 94.7069 444.838 94.8809 445.366 95.2289C445.906 95.5649 446.32 96.0569 446.608 96.7049C446.896 97.3409 447.04 98.1029 447.04 98.9909V106.011H444.448V99.6389C444.448 98.8229 444.274 98.2049 443.926 97.7849C443.578 97.3529 443.068 97.1369 442.396 97.1369C441.724 97.1369 441.214 97.3529 440.866 97.7849C440.518 98.2049 440.344 98.8229 440.344 99.6389V106.011H437.752Z" fill="#062630"/>
<rect x="550" y="1.01091" width="38" height="38" rx="3" stroke="#062630" stroke-width="2"/>
<path d="M575.26 24.3989C575.26 25.4869 574.988 26.4469 574.444 27.2789C573.916 28.1109 573.188 28.7589 572.26 29.2229C571.332 29.6709 570.268 29.8949 569.068 29.8949C567.756 29.8949 566.62 29.6629 565.66 29.1989C564.7 28.7189 563.956 28.0309 563.428 27.1349C562.9 26.2229 562.62 25.1429 562.588 23.8949H565.204C565.364 24.9989 565.78 25.8469 566.452 26.4389C567.124 27.0309 567.988 27.3269 569.044 27.3269C569.732 27.3269 570.332 27.1989 570.844 26.9429C571.372 26.6869 571.78 26.3269 572.068 25.8629C572.356 25.3829 572.5 24.8309 572.5 24.2069C572.5 23.2629 572.196 22.4949 571.588 21.9029C570.996 21.3109 570.204 21.0149 569.212 21.0149H566.956V18.4709H569.212C570.236 18.4709 571.06 18.1989 571.684 17.6549C572.308 17.1109 572.62 16.4069 572.62 15.5429C572.62 14.6309 572.3 13.8949 571.66 13.3349C571.036 12.7749 570.196 12.4949 569.14 12.4949C568.036 12.4949 567.14 12.8069 566.452 13.4309C565.764 14.0549 565.308 14.9669 565.084 16.1669H562.468C562.532 14.8389 562.844 13.7109 563.404 12.7829C563.964 11.8549 564.732 11.1509 565.708 10.6709C566.684 10.1749 567.836 9.92691 569.164 9.92691C570.38 9.92691 571.452 10.1509 572.38 10.5989C573.308 11.0469 574.028 11.6709 574.54 12.4709C575.068 13.2709 575.332 14.2309 575.332 15.3509C575.332 16.3909 575.052 17.2789 574.492 18.0149C573.948 18.7509 573.22 19.2389 572.308 19.4789V19.8629C573.204 20.1029 573.916 20.6309 574.444 21.4469C574.988 22.2469 575.26 23.2309 575.26 24.3989Z" fill="#062630"/>
<path d="M554.958 83.3349C553.95 83.3349 553.08 83.1429 552.348 82.7589C551.616 82.3749 551.052 81.8229 550.656 81.1029C550.272 80.3829 550.08 79.5249 550.08 78.5289V76.7109H552.726V78.4029C552.726 79.1829 552.918 79.7889 553.302 80.2209C553.698 80.6409 554.25 80.8509 554.958 80.8509C555.678 80.8509 556.23 80.6409 556.614 80.2209C557.01 79.7889 557.208 79.1829 557.208 78.4029V71.2029H551.106V68.6109H559.908V78.5289C559.908 79.5249 559.71 80.3829 559.314 81.1029C558.918 81.8229 558.348 82.3749 557.604 82.7589C556.872 83.1429 555.99 83.3349 554.958 83.3349ZM567.724 83.3349C566.68 83.3349 565.768 83.1009 564.988 82.6329C564.22 82.1529 563.62 81.4809 563.188 80.6169C562.768 79.7409 562.558 78.7089 562.558 77.5209C562.558 76.3329 562.768 75.3069 563.188 74.4429C563.62 73.5669 564.22 72.8949 564.988 72.4269C565.768 71.9469 566.68 71.7069 567.724 71.7069C568.78 71.7069 569.692 71.9469 570.46 72.4269C571.228 72.8949 571.822 73.5669 572.242 74.4429C572.674 75.3069 572.89 76.3329 572.89 77.5209C572.89 78.7089 572.674 79.7409 572.242 80.6169C571.822 81.4809 571.228 82.1529 570.46 82.6329C569.692 83.1009 568.78 83.3349 567.724 83.3349ZM567.724 80.9949C568.564 80.9949 569.212 80.6889 569.668 80.0769C570.124 79.4649 570.352 78.6129 570.352 77.5209C570.352 76.4289 570.124 75.5769 569.668 74.9649C569.212 74.3529 568.564 74.0469 567.724 74.0469C566.896 74.0469 566.248 74.3529 565.78 74.9649C565.324 75.5769 565.096 76.4289 565.096 77.5209C565.096 78.6129 565.324 79.4649 565.78 80.0769C566.248 80.6889 566.896 80.9949 567.724 80.9949ZM576.205 72.0309H582.055V80.6709H585.313V83.0109H576.205V80.6709H579.463V74.3709H576.205V72.0309ZM580.615 70.6269C580.063 70.6269 579.637 70.4829 579.337 70.1949C579.037 69.9069 578.887 69.5049 578.887 68.9889C578.887 68.4609 579.037 68.0589 579.337 67.7829C579.637 67.4949 580.063 67.3509 580.615 67.3509C581.167 67.3509 581.593 67.4949 581.893 67.7829C582.193 68.0709 582.343 68.4729 582.343 68.9889C582.343 69.5049 582.193 69.9069 581.893 70.1949C581.593 70.4829 581.167 70.6269 580.615 70.6269ZM588.017 83.0109V72.0309H590.609V72.9849H591.239C591.491 72.5769 591.833 72.2649 592.265 72.0489C592.697 71.8209 593.183 71.7069 593.723 71.7069C594.467 71.7069 595.103 71.8809 595.631 72.2289C596.171 72.5649 596.585 73.0569 596.873 73.7049C597.161 74.3409 597.305 75.1029 597.305 75.9909V83.0109H594.713V76.6389C594.713 75.8229 594.539 75.2049 594.191 74.7849C593.843 74.3529 593.333 74.1369 592.661 74.1369C591.989 74.1369 591.479 74.3529 591.131 74.7849C590.783 75.2049 590.609 75.8229 590.609 76.6389V83.0109H588.017ZM617.418 83.3349C616.374 83.3349 615.462 83.1009 614.682 82.6329C613.914 82.1529 613.314 81.4809 612.882 80.6169C612.462 79.7409 612.252 78.7089 612.252 77.5209C612.252 76.3329 612.462 75.3069 612.882 74.4429C613.314 73.5669 613.914 72.8949 614.682 72.4269C615.462 71.9469 616.374 71.7069 617.418 71.7069C618.474 71.7069 619.386 71.9469 620.154 72.4269C620.922 72.8949 621.516 73.5669 621.936 74.4429C622.368 75.3069 622.584 76.3329 622.584 77.5209C622.584 78.7089 622.368 79.7409 621.936 80.6169C621.516 81.4809 620.922 82.1529 620.154 82.6329C619.386 83.1009 618.474 83.3349 617.418 83.3349ZM617.418 80.9949C618.258 80.9949 618.906 80.6889 619.362 80.0769C619.818 79.4649 620.046 78.6129 620.046 77.5209C620.046 76.4289 619.818 75.5769 619.362 74.9649C618.906 74.3529 618.258 74.0469 617.418 74.0469C616.59 74.0469 615.942 74.3529 615.474 74.9649C615.018 75.5769 614.79 76.4289 614.79 77.5209C614.79 78.6129 615.018 79.4649 615.474 80.0769C615.942 80.6889 616.59 80.9949 617.418 80.9949ZM634.395 72.0309V83.0109H631.803V82.0749H631.173C630.921 82.4709 630.579 82.7829 630.147 83.0109C629.715 83.2269 629.229 83.3349 628.689 83.3349C627.945 83.3349 627.303 83.1669 626.763 82.8309C626.235 82.4829 625.827 81.9909 625.539 81.3549C625.251 80.7069 625.107 79.9389 625.107 79.0509V72.0309H627.699V78.4029C627.699 79.2189 627.873 79.8429 628.221 80.2749C628.569 80.6949 629.079 80.9049 629.751 80.9049C630.423 80.9049 630.933 80.6949 631.281 80.2749C631.629 79.8429 631.803 79.2189 631.803 78.4029V72.0309H634.395ZM637.477 72.0309H642.049V72.9669H642.679C642.883 72.5709 643.177 72.2649 643.561 72.0489C643.957 71.8329 644.407 71.7249 644.911 71.7249C645.787 71.7249 646.453 72.0489 646.909 72.6969C647.377 73.3329 647.611 74.2629 647.611 75.4869V77.1789H644.965V75.8289C644.965 74.7489 644.551 74.2089 643.723 74.2089C643.195 74.2089 642.805 74.4489 642.553 74.9289C642.301 75.3969 642.175 76.1109 642.175 77.0709V80.6709H645.379V83.0109H637.729V80.6709H639.655V74.3709H637.477V72.0309ZM554.256 106.299C553.356 106.299 552.576 106.065 551.916 105.597C551.256 105.117 550.746 104.451 550.386 103.599C550.026 102.735 549.846 101.709 549.846 100.521C549.846 99.3449 550.026 98.3249 550.386 97.4609C550.746 96.5969 551.256 95.9309 551.916 95.4629C552.576 94.9829 553.356 94.7429 554.256 94.7429C554.808 94.7429 555.312 94.8629 555.768 95.1029C556.224 95.3309 556.56 95.6489 556.776 96.0569H557.406V90.7469H559.998V106.011H557.406V104.985H556.776C556.56 105.381 556.224 105.699 555.768 105.939C555.312 106.179 554.808 106.299 554.256 106.299ZM554.958 103.959C555.786 103.959 556.422 103.659 556.866 103.059C557.322 102.447 557.55 101.601 557.55 100.521C557.55 99.4409 557.322 98.6009 556.866 98.0009C556.422 97.3889 555.786 97.0829 554.958 97.0829C554.142 97.0829 553.506 97.3889 553.05 98.0009C552.594 98.6009 552.366 99.4409 552.366 100.521C552.366 101.613 552.594 102.459 553.05 103.059C553.506 103.659 554.142 103.959 554.958 103.959ZM563.782 95.0309H569.632V103.671H572.89V106.011H563.782V103.671H567.04V97.3709H563.782V95.0309ZM568.192 93.6269C567.64 93.6269 567.214 93.4829 566.914 93.1949C566.614 92.9069 566.464 92.5049 566.464 91.9889C566.464 91.4609 566.614 91.0589 566.914 90.7829C567.214 90.4949 567.64 90.3509 568.192 90.3509C568.744 90.3509 569.17 90.4949 569.47 90.7829C569.77 91.0709 569.92 91.4729 569.92 91.9889C569.92 92.5049 569.77 92.9069 569.47 93.1949C569.17 93.4829 568.744 93.6269 568.192 93.6269ZM578.023 102.609C578.191 103.077 578.467 103.437 578.851 103.689C579.235 103.929 579.727 104.049 580.327 104.049C580.963 104.049 581.449 103.947 581.785 103.743C582.121 103.539 582.289 103.251 582.289 102.879C582.289 102.579 582.163 102.345 581.911 102.177C581.659 101.997 581.275 101.871 580.759 101.799L579.247 101.619C578.035 101.463 577.129 101.115 576.529 100.575C575.941 100.035 575.647 99.2729 575.647 98.2889C575.647 97.1729 576.049 96.2969 576.853 95.6609C577.669 95.0249 578.797 94.7069 580.237 94.7069C581.737 94.7069 582.901 95.0489 583.729 95.7329C584.569 96.4049 585.019 97.3769 585.079 98.6489H582.685C582.541 98.1089 582.265 97.7009 581.857 97.4249C581.449 97.1369 580.903 96.9929 580.219 96.9929C579.547 96.9929 579.031 97.1009 578.671 97.3169C578.323 97.5209 578.149 97.8149 578.149 98.1989C578.149 98.4869 578.275 98.7209 578.527 98.9009C578.779 99.0689 579.163 99.1829 579.679 99.2429L581.191 99.4409C582.415 99.5849 583.321 99.9329 583.909 100.485C584.497 101.025 584.791 101.781 584.791 102.753C584.791 103.497 584.611 104.139 584.251 104.679C583.903 105.207 583.393 105.615 582.721 105.903C582.061 106.191 581.257 106.335 580.309 106.335C578.869 106.335 577.747 106.017 576.943 105.381C576.139 104.733 575.689 103.809 575.593 102.609H578.023ZM592.859 106.335C591.815 106.335 590.909 106.101 590.141 105.633C589.373 105.165 588.779 104.499 588.359 103.635C587.939 102.771 587.729 101.751 587.729 100.575C587.729 99.3749 587.945 98.3369 588.377 97.4609C588.809 96.5849 589.415 95.9069 590.195 95.4269C590.987 94.9469 591.917 94.7069 592.985 94.7069C593.933 94.7069 594.761 94.9049 595.469 95.3009C596.177 95.6849 596.735 96.2309 597.143 96.9389C597.551 97.6469 597.773 98.4869 597.809 99.4589H595.469C595.313 98.6909 595.013 98.0969 594.569 97.6769C594.137 97.2569 593.597 97.0469 592.949 97.0469C592.097 97.0469 591.431 97.3589 590.951 97.9829C590.483 98.5949 590.249 99.4589 590.249 100.575C590.249 101.655 590.477 102.495 590.933 103.095C591.401 103.695 592.043 103.995 592.859 103.995C593.447 103.995 593.945 103.815 594.353 103.455C594.761 103.095 595.049 102.591 595.217 101.943H597.575C597.503 102.831 597.257 103.605 596.837 104.265C596.429 104.925 595.883 105.435 595.199 105.795C594.515 106.155 593.735 106.335 592.859 106.335ZM609.548 95.0309V106.011H606.956V105.075H606.326C606.074 105.471 605.732 105.783 605.3 106.011C604.868 106.227 604.382 106.335 603.842 106.335C603.098 106.335 602.456 106.167 601.916 105.831C601.388 105.483 600.98 104.991 600.692 104.355C600.404 103.707 600.26 102.939 600.26 102.051V95.0309H602.852V101.403C602.852 102.219 603.026 102.843 603.374 103.275C603.722 103.695 604.232 103.905 604.904 103.905C605.576 103.905 606.086 103.695 606.434 103.275C606.782 102.843 606.956 102.219 606.956 101.403V95.0309H609.548ZM615.294 102.609C615.462 103.077 615.738 103.437 616.122 103.689C616.506 103.929 616.998 104.049 617.598 104.049C618.234 104.049 618.72 103.947 619.056 103.743C619.392 103.539 619.56 103.251 619.56 102.879C619.56 102.579 619.434 102.345 619.182 102.177C618.93 101.997 618.546 101.871 618.03 101.799L616.518 101.619C615.306 101.463 614.4 101.115 613.8 100.575C613.212 100.035 612.918 99.2729 612.918 98.2889C612.918 97.1729 613.32 96.2969 614.124 95.6609C614.94 95.0249 616.068 94.7069 617.508 94.7069C619.008 94.7069 620.172 95.0489 621 95.7329C621.84 96.4049 622.29 97.3769 622.35 98.6489H619.956C619.812 98.1089 619.536 97.7009 619.128 97.4249C618.72 97.1369 618.174 96.9929 617.49 96.9929C616.818 96.9929 616.302 97.1009 615.942 97.3169C615.594 97.5209 615.42 97.8149 615.42 98.1989C615.42 98.4869 615.546 98.7209 615.798 98.9009C616.05 99.0689 616.434 99.1829 616.95 99.2429L618.462 99.4409C619.686 99.5849 620.592 99.9329 621.18 100.485C621.768 101.025 622.062 101.781 622.062 102.753C622.062 103.497 621.882 104.139 621.522 104.679C621.174 105.207 620.664 105.615 619.992 105.903C619.332 106.191 618.528 106.335 617.58 106.335C616.14 106.335 615.018 106.017 614.214 105.381C613.41 104.733 612.96 103.809 612.864 102.609H615.294ZM627.717 102.609C627.885 103.077 628.161 103.437 628.545 103.689C628.929 103.929 629.421 104.049 630.021 104.049C630.657 104.049 631.143 103.947 631.479 103.743C631.815 103.539 631.983 103.251 631.983 102.879C631.983 102.579 631.857 102.345 631.605 102.177C631.353 101.997 630.969 101.871 630.453 101.799L628.941 101.619C627.729 101.463 626.823 101.115 626.223 100.575C625.635 100.035 625.341 99.2729 625.341 98.2889C625.341 97.1729 625.743 96.2969 626.547 95.6609C627.363 95.0249 628.491 94.7069 629.931 94.7069C631.431 94.7069 632.595 95.0489 633.423 95.7329C634.263 96.4049 634.713 97.3769 634.773 98.6489H632.379C632.235 98.1089 631.959 97.7009 631.551 97.4249C631.143 97.1369 630.597 96.9929 629.913 96.9929C629.241 96.9929 628.725 97.1009 628.365 97.3169C628.017 97.5209 627.843 97.8149 627.843 98.1989C627.843 98.4869 627.969 98.7209 628.221 98.9009C628.473 99.0689 628.857 99.1829 629.373 99.2429L630.885 99.4409C632.109 99.5849 633.015 99.9329 633.603 100.485C634.191 101.025 634.485 101.781 634.485 102.753C634.485 103.497 634.305 104.139 633.945 104.679C633.597 105.207 633.087 105.615 632.415 105.903C631.755 106.191 630.951 106.335 630.003 106.335C628.563 106.335 627.441 106.017 626.637 105.381C625.833 104.733 625.383 103.809 625.287 102.609H627.717ZM638.323 95.0309H644.173V103.671H647.431V106.011H638.323V103.671H641.581V97.3709H638.323V95.0309ZM642.733 93.6269C642.181 93.6269 641.755 93.4829 641.455 93.1949C641.155 92.9069 641.005 92.5049 641.005 91.9889C641.005 91.4609 641.155 91.0589 641.455 90.7829C641.755 90.4949 642.181 90.3509 642.733 90.3509C643.285 90.3509 643.711 90.4949 644.011 90.7829C644.311 91.0709 644.461 91.4729 644.461 91.9889C644.461 92.5049 644.311 92.9069 644.011 93.1949C643.711 93.4829 643.285 93.6269 642.733 93.6269ZM654.688 106.335C653.644 106.335 652.732 106.101 651.952 105.633C651.184 105.153 650.584 104.481 650.152 103.617C649.732 102.741 649.522 101.709 649.522 100.521C649.522 99.3329 649.732 98.3069 650.152 97.4429C650.584 96.5669 651.184 95.8949 651.952 95.4269C652.732 94.9469 653.644 94.7069 654.688 94.7069C655.744 94.7069 656.656 94.9469 657.424 95.4269C658.192 95.8949 658.786 96.5669 659.206 97.4429C659.638 98.3069 659.854 99.3329 659.854 100.521C659.854 101.709 659.638 102.741 659.206 103.617C658.786 104.481 658.192 105.153 657.424 105.633C656.656 106.101 655.744 106.335 654.688 106.335ZM654.688 103.995C655.528 103.995 656.176 103.689 656.632 103.077C657.088 102.465 657.316 101.613 657.316 100.521C657.316 99.4289 657.088 98.5769 656.632 97.9649C656.176 97.3529 655.528 97.0469 654.688 97.0469C653.86 97.0469 653.212 97.3529 652.744 97.9649C652.288 98.5769 652.06 99.4289 652.06 100.521C652.06 101.613 652.288 102.465 652.744 103.077C653.212 103.689 653.86 103.995 654.688 103.995ZM662.558 106.011V95.0309H665.15V95.9849H665.78C666.032 95.5769 666.374 95.2649 666.806 95.0489C667.238 94.8209 667.724 94.7069 668.264 94.7069C669.008 94.7069 669.644 94.8809 670.172 95.2289C670.712 95.5649 671.126 96.0569 671.414 96.7049C671.702 97.3409 671.846 98.1029 671.846 98.9909V106.011H669.254V99.6389C669.254 98.8229 669.08 98.2049 668.732 97.7849C668.384 97.3529 667.874 97.1369 667.202 97.1369C666.53 97.1369 666.02 97.3529 665.672 97.7849C665.324 98.2049 665.15 98.8229 665.15 99.6389V106.011H662.558ZM692.715 106.011H690.123V97.3709H687.711V95.0309H690.123V94.2029C690.123 93.0029 690.471 92.0729 691.167 91.4129C691.863 90.7529 692.841 90.4229 694.101 90.4229C695.301 90.4229 696.249 90.7169 696.945 91.3049C697.641 91.8809 698.025 92.7029 698.097 93.7709H695.685C695.529 93.4109 695.325 93.1409 695.073 92.9609C694.821 92.7809 694.497 92.6909 694.101 92.6909C693.657 92.6909 693.315 92.8289 693.075 93.1049C692.835 93.3689 692.715 93.7589 692.715 94.2749V95.0309H696.801V97.3709H692.715V106.011ZM704.382 106.335C703.338 106.335 702.426 106.101 701.646 105.633C700.878 105.153 700.278 104.481 699.846 103.617C699.426 102.741 699.216 101.709 699.216 100.521C699.216 99.3329 699.426 98.3069 699.846 97.4429C700.278 96.5669 700.878 95.8949 701.646 95.4269C702.426 94.9469 703.338 94.7069 704.382 94.7069C705.438 94.7069 706.35 94.9469 707.118 95.4269C707.886 95.8949 708.48 96.5669 708.9 97.4429C709.332 98.3069 709.548 99.3329 709.548 100.521C709.548 101.709 709.332 102.741 708.9 103.617C708.48 104.481 707.886 105.153 707.118 105.633C706.35 106.101 705.438 106.335 704.382 106.335ZM704.382 103.995C705.222 103.995 705.87 103.689 706.326 103.077C706.782 102.465 707.01 101.613 707.01 100.521C707.01 99.4289 706.782 98.5769 706.326 97.9649C705.87 97.3529 705.222 97.0469 704.382 97.0469C703.554 97.0469 702.906 97.3529 702.438 97.9649C701.982 98.5769 701.754 99.4289 701.754 100.521C701.754 101.613 701.982 102.465 702.438 103.077C702.906 103.689 703.554 103.995 704.382 103.995ZM712.018 95.0309H716.59V95.9669H717.22C717.424 95.5709 717.718 95.2649 718.102 95.0489C718.498 94.8329 718.948 94.7249 719.452 94.7249C720.328 94.7249 720.994 95.0489 721.45 95.6969C721.918 96.3329 722.152 97.2629 722.152 98.4869V100.179H719.506V98.8289C719.506 97.7489 719.092 97.2089 718.264 97.2089C717.736 97.2089 717.346 97.4489 717.094 97.9289C716.842 98.3969 716.716 99.1109 716.716 100.071V103.671H719.92V106.011H712.27V103.671H714.196V97.3709H712.018V95.0309ZM733.783 95.0309V106.011H731.191V105.075H730.561C730.309 105.471 729.967 105.783 729.535 106.011C729.103 106.227 728.617 106.335 728.077 106.335C727.333 106.335 726.691 106.167 726.151 105.831C725.623 105.483 725.215 104.991 724.927 104.355C724.639 103.707 724.495 102.939 724.495 102.051V95.0309H727.087V101.403C727.087 102.219 727.261 102.843 727.609 103.275C727.957 103.695 728.467 103.905 729.139 103.905C729.811 103.905 730.321 103.695 730.669 103.275C731.017 102.843 731.191 102.219 731.191 101.403V95.0309H733.783ZM736.379 95.0309H738.899V96.0929H740.447L739.331 96.8489C739.355 96.1649 739.523 95.6369 739.835 95.2649C740.147 94.8929 740.573 94.7069 741.113 94.7069C741.617 94.7069 742.019 94.9049 742.319 95.3009C742.631 95.6969 742.811 96.2489 742.859 96.9569L741.833 96.1289H744.281L743.165 96.8669C743.201 96.1829 743.381 95.6549 743.705 95.2829C744.041 94.8989 744.485 94.7069 745.037 94.7069C745.649 94.7069 746.123 94.9649 746.459 95.4809C746.807 95.9969 746.981 96.7109 746.981 97.6229V106.011H744.641V98.6129C744.641 98.2289 744.563 97.9409 744.407 97.7489C744.263 97.5449 744.041 97.4429 743.741 97.4429C743.453 97.4429 743.231 97.5449 743.075 97.7489C742.931 97.9409 742.859 98.2289 742.859 98.6129V106.011H740.519V98.6129C740.519 98.2289 740.441 97.9409 740.285 97.7489C740.129 97.5449 739.907 97.4429 739.619 97.4429C739.331 97.4429 739.109 97.5449 738.953 97.7489C738.809 97.9409 738.737 98.2289 738.737 98.6129V106.011H736.379V95.0309ZM751.952 102.609C752.12 103.077 752.396 103.437 752.78 103.689C753.164 103.929 753.656 104.049 754.256 104.049C754.892 104.049 755.378 103.947 755.714 103.743C756.05 103.539 756.218 103.251 756.218 102.879C756.218 102.579 756.092 102.345 755.84 102.177C755.588 101.997 755.204 101.871 754.688 101.799L753.176 101.619C751.964 101.463 751.058 101.115 750.458 100.575C749.87 100.035 749.576 99.2729 749.576 98.2889C749.576 97.1729 749.978 96.2969 750.782 95.6609C751.598 95.0249 752.726 94.7069 754.166 94.7069C755.666 94.7069 756.83 95.0489 757.658 95.7329C758.498 96.4049 758.948 97.3769 759.008 98.6489H756.614C756.47 98.1089 756.194 97.7009 755.786 97.4249C755.378 97.1369 754.832 96.9929 754.148 96.9929C753.476 96.9929 752.96 97.1009 752.6 97.3169C752.252 97.5209 752.078 97.8149 752.078 98.1989C752.078 98.4869 752.204 98.7209 752.456 98.9009C752.708 99.0689 753.092 99.1829 753.608 99.2429L755.12 99.4409C756.344 99.5849 757.25 99.9329 757.838 100.485C758.426 101.025 758.72 101.781 758.72 102.753C758.72 103.497 758.54 104.139 758.18 104.679C757.832 105.207 757.322 105.615 756.65 105.903C755.99 106.191 755.186 106.335 754.238 106.335C752.798 106.335 751.676 106.017 750.872 105.381C750.068 104.733 749.618 103.809 749.522 102.609H751.952Z" fill="#062630"/>
<rect x="824.5" y="1.01091" width="38" height="38" rx="3" stroke="#062630" stroke-width="2"/>
<path d="M847.696 10.3109V21.3749H850.552V23.9429H847.696V29.5109H844.96V23.9429H836.32V20.2709L842.896 10.3109H847.696ZM838.696 21.1109V21.3749H844.96V10.5749H845.704L838.696 21.1109Z" fill="#062630"/>
<path d="M824.166 83.0109L827.568 68.6109H832.032L835.434 83.0109H832.698L829.854 70.5909H829.584L826.74 83.0109H824.166ZM826.506 78.5649V76.0089H833.094V78.5649H826.506ZM842.008 69.1869V72.0309H846.85V74.3709H842.008V79.2669C842.008 79.8309 842.116 80.2629 842.332 80.5629C842.548 80.8509 842.866 80.9949 843.286 80.9949C843.718 80.9949 844.06 80.8269 844.312 80.4909C844.576 80.1549 844.78 79.6209 844.924 78.8889H847.21C847.15 80.3289 846.772 81.4329 846.076 82.2009C845.392 82.9569 844.438 83.3349 843.214 83.3349C841.99 83.3349 841.048 82.9869 840.388 82.2909C839.74 81.5829 839.416 80.5869 839.416 79.3029V74.3709H837.238V72.0309H839.416V69.1869H842.008ZM854.431 69.1869V72.0309H859.273V74.3709H854.431V79.2669C854.431 79.8309 854.539 80.2629 854.755 80.5629C854.971 80.8509 855.289 80.9949 855.709 80.9949C856.141 80.9949 856.483 80.8269 856.735 80.4909C856.999 80.1549 857.203 79.6209 857.347 78.8889H859.633C859.573 80.3289 859.195 81.4329 858.499 82.2009C857.815 82.9569 856.861 83.3349 855.637 83.3349C854.413 83.3349 853.471 82.9869 852.811 82.2909C852.163 81.5829 851.839 80.5869 851.839 79.3029V74.3709H849.661V72.0309H851.839V69.1869H854.431ZM864.227 76.3869H870.491L869.627 77.4129C869.627 76.2849 869.429 75.4329 869.033 74.8569C868.637 74.2689 868.049 73.9749 867.269 73.9749C866.441 73.9749 865.805 74.2809 865.361 74.8929C864.929 75.4929 864.713 76.3449 864.713 77.4489C864.713 78.6369 864.929 79.5369 865.361 80.1489C865.805 80.7609 866.465 81.0669 867.341 81.0669C867.857 81.0669 868.313 80.9469 868.709 80.7069C869.117 80.4549 869.459 80.0889 869.735 79.6089H872.201C871.985 80.3889 871.643 81.0609 871.175 81.6249C870.719 82.1769 870.161 82.6029 869.501 82.9029C868.841 83.1909 868.103 83.3349 867.287 83.3349C866.231 83.3349 865.325 83.1009 864.569 82.6329C863.813 82.1649 863.231 81.4929 862.823 80.6169C862.415 79.7409 862.211 78.6849 862.211 77.4489C862.211 76.2729 862.421 75.2589 862.841 74.4069C863.261 73.5429 863.849 72.8769 864.605 72.4089C865.361 71.9409 866.249 71.7069 867.269 71.7069C868.253 71.7069 869.093 71.9349 869.789 72.3909C870.485 72.8349 871.019 73.4829 871.391 74.3349C871.763 75.1749 871.949 76.1949 871.949 77.3949C871.949 77.5749 871.943 77.7429 871.931 77.8989C871.919 78.0549 871.907 78.2109 871.895 78.3669H864.227V76.3869ZM874.94 83.0109V72.0309H877.532V72.9849H878.162C878.414 72.5769 878.756 72.2649 879.188 72.0489C879.62 71.8209 880.106 71.7069 880.646 71.7069C881.39 71.7069 882.026 71.8809 882.554 72.2289C883.094 72.5649 883.508 73.0569 883.796 73.7049C884.084 74.3409 884.228 75.1029 884.228 75.9909V83.0109H881.636V76.6389C881.636 75.8229 881.462 75.2049 881.114 74.7849C880.766 74.3529 880.256 74.1369 879.584 74.1369C878.912 74.1369 878.402 74.3529 878.054 74.7849C877.706 75.2049 877.532 75.8229 877.532 76.6389V83.0109H874.94ZM890.874 83.2989C889.974 83.2989 889.194 83.0649 888.534 82.5969C887.874 82.1169 887.364 81.4509 887.004 80.5989C886.644 79.7349 886.464 78.7089 886.464 77.5209C886.464 76.3449 886.644 75.3249 887.004 74.4609C887.364 73.5969 887.874 72.9309 888.534 72.4629C889.194 71.9829 889.974 71.7429 890.874 71.7429C891.426 71.7429 891.93 71.8629 892.386 72.1029C892.842 72.3309 893.178 72.6489 893.394 73.0569H894.024V67.7469H896.616V83.0109H894.024V81.9849H893.394C893.178 82.3809 892.842 82.6989 892.386 82.9389C891.93 83.1789 891.426 83.2989 890.874 83.2989ZM891.576 80.9589C892.404 80.9589 893.04 80.6589 893.484 80.0589C893.94 79.4469 894.168 78.6009 894.168 77.5209C894.168 76.4409 893.94 75.6009 893.484 75.0009C893.04 74.3889 892.404 74.0829 891.576 74.0829C890.76 74.0829 890.124 74.3889 889.668 75.0009C889.212 75.6009 888.984 76.4409 888.984 77.5209C888.984 78.6129 889.212 79.4589 889.668 80.0589C890.124 80.6589 890.76 80.9589 891.576 80.9589ZM913.921 76.3869H920.185L919.321 77.4129C919.321 76.2849 919.123 75.4329 918.727 74.8569C918.331 74.2689 917.743 73.9749 916.963 73.9749C916.135 73.9749 915.499 74.2809 915.055 74.8929C914.623 75.4929 914.407 76.3449 914.407 77.4489C914.407 78.6369 914.623 79.5369 915.055 80.1489C915.499 80.7609 916.159 81.0669 917.035 81.0669C917.551 81.0669 918.007 80.9469 918.403 80.7069C918.811 80.4549 919.153 80.0889 919.429 79.6089H921.895C921.679 80.3889 921.337 81.0609 920.869 81.6249C920.413 82.1769 919.855 82.6029 919.195 82.9029C918.535 83.1909 917.797 83.3349 916.981 83.3349C915.925 83.3349 915.019 83.1009 914.263 82.6329C913.507 82.1649 912.925 81.4929 912.517 80.6169C912.109 79.7409 911.905 78.6849 911.905 77.4489C911.905 76.2729 912.115 75.2589 912.535 74.4069C912.955 73.5429 913.543 72.8769 914.299 72.4089C915.055 71.9409 915.943 71.7069 916.963 71.7069C917.947 71.7069 918.787 71.9349 919.483 72.3909C920.179 72.8349 920.713 73.4829 921.085 74.3349C921.457 75.1749 921.643 76.1949 921.643 77.3949C921.643 77.5749 921.637 77.7429 921.625 77.8989C921.613 78.0549 921.601 78.2109 921.589 78.3669H913.921V76.3869ZM924.094 83.0109L927.082 77.7729L923.896 72.0309H926.74L928.918 75.9189L929.098 76.5669H929.368L929.548 75.9189L931.798 72.0309H934.48L931.258 77.6109L934.282 83.0109H931.366L929.422 79.5549L929.242 78.9069H928.972L928.81 79.5549L926.848 83.0109H924.094ZM941.9 83.3349C940.856 83.3349 939.95 83.1009 939.182 82.6329C938.414 82.1649 937.82 81.4989 937.4 80.6349C936.98 79.7709 936.77 78.7509 936.77 77.5749C936.77 76.3749 936.986 75.3369 937.418 74.4609C937.85 73.5849 938.456 72.9069 939.236 72.4269C940.028 71.9469 940.958 71.7069 942.026 71.7069C942.974 71.7069 943.802 71.9049 944.51 72.3009C945.218 72.6849 945.776 73.2309 946.184 73.9389C946.592 74.6469 946.814 75.4869 946.85 76.4589H944.51C944.354 75.6909 944.054 75.0969 943.61 74.6769C943.178 74.2569 942.638 74.0469 941.99 74.0469C941.138 74.0469 940.472 74.3589 939.992 74.9829C939.524 75.5949 939.29 76.4589 939.29 77.5749C939.29 78.6549 939.518 79.4949 939.974 80.0949C940.442 80.6949 941.084 80.9949 941.9 80.9949C942.488 80.9949 942.986 80.8149 943.394 80.4549C943.802 80.0949 944.09 79.5909 944.258 78.9429H946.616C946.544 79.8309 946.298 80.6049 945.878 81.2649C945.47 81.9249 944.924 82.4349 944.24 82.7949C943.556 83.1549 942.776 83.3349 941.9 83.3349ZM949.805 67.7469H955.637V80.6709H958.895V83.0109H949.805V80.6709H953.045V70.0869H949.805V67.7469ZM971.013 72.0309V83.0109H968.421V82.0749H967.791C967.539 82.4709 967.197 82.7829 966.765 83.0109C966.333 83.2269 965.847 83.3349 965.307 83.3349C964.563 83.3349 963.921 83.1669 963.381 82.8309C962.853 82.4829 962.445 81.9909 962.157 81.3549C961.869 80.7069 961.725 79.9389 961.725 79.0509V72.0309H964.317V78.4029C964.317 79.2189 964.491 79.8429 964.839 80.2749C965.187 80.6949 965.697 80.9049 966.369 80.9049C967.041 80.9049 967.551 80.6949 967.899 80.2749C968.247 79.8429 968.421 79.2189 968.421 78.4029V72.0309H971.013ZM976.758 79.6089C976.926 80.0769 977.202 80.4369 977.586 80.6889C977.97 80.9289 978.462 81.0489 979.062 81.0489C979.698 81.0489 980.184 80.9469 980.52 80.7429C980.856 80.5389 981.024 80.2509 981.024 79.8789C981.024 79.5789 980.898 79.3449 980.646 79.1769C980.394 78.9969 980.01 78.8709 979.494 78.7989L977.982 78.6189C976.77 78.4629 975.864 78.1149 975.264 77.5749C974.676 77.0349 974.382 76.2729 974.382 75.2889C974.382 74.1729 974.784 73.2969 975.588 72.6609C976.404 72.0249 977.532 71.7069 978.972 71.7069C980.472 71.7069 981.636 72.0489 982.464 72.7329C983.304 73.4049 983.754 74.3769 983.814 75.6489H981.42C981.276 75.1089 981 74.7009 980.592 74.4249C980.184 74.1369 979.638 73.9929 978.954 73.9929C978.282 73.9929 977.766 74.1009 977.406 74.3169C977.058 74.5209 976.884 74.8149 976.884 75.1989C976.884 75.4869 977.01 75.7209 977.262 75.9009C977.514 76.0689 977.898 76.1829 978.414 76.2429L979.926 76.4409C981.15 76.5849 982.056 76.9329 982.644 77.4849C983.232 78.0249 983.526 78.7809 983.526 79.7529C983.526 80.4969 983.346 81.1389 982.986 81.6789C982.638 82.2069 982.128 82.6149 981.456 82.9029C980.796 83.1909 979.992 83.3349 979.044 83.3349C977.604 83.3349 976.482 83.0169 975.678 82.3809C974.874 81.7329 974.424 80.8089 974.328 79.6089H976.758ZM987.364 72.0309H993.214V80.6709H996.472V83.0109H987.364V80.6709H990.622V74.3709H987.364V72.0309ZM991.774 70.6269C991.222 70.6269 990.796 70.4829 990.496 70.1949C990.196 69.9069 990.046 69.5049 990.046 68.9889C990.046 68.4609 990.196 68.0589 990.496 67.7829C990.796 67.4949 991.222 67.3509 991.774 67.3509C992.326 67.3509 992.752 67.4949 993.052 67.7829C993.352 68.0709 993.502 68.4729 993.502 68.9889C993.502 69.5049 993.352 69.9069 993.052 70.1949C992.752 70.4829 992.326 70.6269 991.774 70.6269ZM998.365 72.0309H1001.03L1003.68 80.9769H1003.95L1006.61 72.0309H1009.09L1005.8 83.0109H1001.66L998.365 72.0309ZM1013.31 76.3869H1019.57L1018.71 77.4129C1018.71 76.2849 1018.51 75.4329 1018.11 74.8569C1017.72 74.2689 1017.13 73.9749 1016.35 73.9749C1015.52 73.9749 1014.89 74.2809 1014.44 74.8929C1014.01 75.4929 1013.79 76.3449 1013.79 77.4489C1013.79 78.6369 1014.01 79.5369 1014.44 80.1489C1014.89 80.7609 1015.55 81.0669 1016.42 81.0669C1016.94 81.0669 1017.39 80.9469 1017.79 80.7069C1018.2 80.4549 1018.54 80.0889 1018.82 79.6089H1021.28C1021.07 80.3889 1020.72 81.0609 1020.26 81.6249C1019.8 82.1769 1019.24 82.6029 1018.58 82.9029C1017.92 83.1909 1017.18 83.3349 1016.37 83.3349C1015.31 83.3349 1014.41 83.1009 1013.65 82.6329C1012.89 82.1649 1012.31 81.4929 1011.9 80.6169C1011.5 79.7409 1011.29 78.6849 1011.29 77.4489C1011.29 76.2729 1011.5 75.2589 1011.92 74.4069C1012.34 73.5429 1012.93 72.8769 1013.69 72.4089C1014.44 71.9409 1015.33 71.7069 1016.35 71.7069C1017.33 71.7069 1018.17 71.9349 1018.87 72.3909C1019.57 72.8349 1020.1 73.4829 1020.47 74.3349C1020.84 75.1749 1021.03 76.1949 1021.03 77.3949C1021.03 77.5749 1021.02 77.7429 1021.01 77.8989C1021 78.0549 1020.99 78.2109 1020.98 78.3669H1013.31V76.3869ZM824.526 95.0309H827.046V96.0929H828.594L827.478 96.8489C827.502 96.1649 827.67 95.6369 827.982 95.2649C828.294 94.8929 828.72 94.7069 829.26 94.7069C829.764 94.7069 830.166 94.9049 830.466 95.3009C830.778 95.6969 830.958 96.2489 831.006 96.9569L829.98 96.1289H832.428L831.312 96.8669C831.348 96.1829 831.528 95.6549 831.852 95.2829C832.188 94.8989 832.632 94.7069 833.184 94.7069C833.796 94.7069 834.27 94.9649 834.606 95.4809C834.954 95.9969 835.128 96.7109 835.128 97.6229V106.011H832.788V98.6129C832.788 98.2289 832.71 97.9409 832.554 97.7489C832.41 97.5449 832.188 97.4429 831.888 97.4429C831.6 97.4429 831.378 97.5449 831.222 97.7489C831.078 97.9409 831.006 98.2289 831.006 98.6129V106.011H828.666V98.6129C828.666 98.2289 828.588 97.9409 828.432 97.7489C828.276 97.5449 828.054 97.4429 827.766 97.4429C827.478 97.4429 827.256 97.5449 827.1 97.7489C826.956 97.9409 826.884 98.2289 826.884 98.6129V106.011H824.526V95.0309ZM839.38 99.3869H845.644L844.78 100.413C844.78 99.2849 844.582 98.4329 844.186 97.8569C843.79 97.2689 843.202 96.9749 842.422 96.9749C841.594 96.9749 840.958 97.2809 840.514 97.8929C840.082 98.4929 839.866 99.3449 839.866 100.449C839.866 101.637 840.082 102.537 840.514 103.149C840.958 103.761 841.618 104.067 842.494 104.067C843.01 104.067 843.466 103.947 843.862 103.707C844.27 103.455 844.612 103.089 844.888 102.609H847.354C847.138 103.389 846.796 104.061 846.328 104.625C845.872 105.177 845.314 105.603 844.654 105.903C843.994 106.191 843.256 106.335 842.44 106.335C841.384 106.335 840.478 106.101 839.722 105.633C838.966 105.165 838.384 104.493 837.976 103.617C837.568 102.741 837.364 101.685 837.364 100.449C837.364 99.2729 837.574 98.2589 837.994 97.4069C838.414 96.5429 839.002 95.8769 839.758 95.4089C840.514 94.9409 841.402 94.7069 842.422 94.7069C843.406 94.7069 844.246 94.9349 844.942 95.3909C845.638 95.8349 846.172 96.4829 846.544 97.3349C846.916 98.1749 847.102 99.1949 847.102 100.395C847.102 100.575 847.096 100.743 847.084 100.899C847.072 101.055 847.06 101.211 847.048 101.367H839.38V99.3869ZM851.803 99.3869H858.067L857.203 100.413C857.203 99.2849 857.005 98.4329 856.609 97.8569C856.213 97.2689 855.625 96.9749 854.845 96.9749C854.017 96.9749 853.381 97.2809 852.937 97.8929C852.505 98.4929 852.289 99.3449 852.289 100.449C852.289 101.637 852.505 102.537 852.937 103.149C853.381 103.761 854.041 104.067 854.917 104.067C855.433 104.067 855.889 103.947 856.285 103.707C856.693 103.455 857.035 103.089 857.311 102.609H859.777C859.561 103.389 859.219 104.061 858.751 104.625C858.295 105.177 857.737 105.603 857.077 105.903C856.417 106.191 855.679 106.335 854.863 106.335C853.807 106.335 852.901 106.101 852.145 105.633C851.389 105.165 850.807 104.493 850.399 103.617C849.991 102.741 849.787 101.685 849.787 100.449C849.787 99.2729 849.997 98.2589 850.417 97.4069C850.837 96.5429 851.425 95.8769 852.181 95.4089C852.937 94.9409 853.825 94.7069 854.845 94.7069C855.829 94.7069 856.669 94.9349 857.365 95.3909C858.061 95.8349 858.595 96.4829 858.967 97.3349C859.339 98.1749 859.525 99.1949 859.525 100.395C859.525 100.575 859.519 100.743 859.507 100.899C859.495 101.055 859.483 101.211 859.471 101.367H851.803V99.3869ZM866.855 92.1869V95.0309H871.697V97.3709H866.855V102.267C866.855 102.831 866.963 103.263 867.179 103.563C867.395 103.851 867.713 103.995 868.133 103.995C868.565 103.995 868.907 103.827 869.159 103.491C869.423 103.155 869.627 102.621 869.771 101.889H872.057C871.997 103.329 871.619 104.433 870.923 105.201C870.239 105.957 869.285 106.335 868.061 106.335C866.837 106.335 865.895 105.987 865.235 105.291C864.587 104.583 864.263 103.587 864.263 102.303V97.3709H862.085V95.0309H864.263V92.1869H866.855ZM884.048 95.0309V106.011H881.456V105.075H880.826C880.574 105.471 880.232 105.783 879.8 106.011C879.368 106.227 878.882 106.335 878.342 106.335C877.598 106.335 876.956 106.167 876.416 105.831C875.888 105.483 875.48 104.991 875.192 104.355C874.904 103.707 874.76 102.939 874.76 102.051V95.0309H877.352V101.403C877.352 102.219 877.526 102.843 877.874 103.275C878.222 103.695 878.732 103.905 879.404 103.905C880.076 103.905 880.586 103.695 880.934 103.275C881.282 102.843 881.456 102.219 881.456 101.403V95.0309H884.048ZM887.22 109.611V95.0309H889.812V96.0569H890.442C890.658 95.6489 890.994 95.3309 891.45 95.1029C891.906 94.8629 892.41 94.7429 892.962 94.7429C893.862 94.7429 894.642 94.9829 895.302 95.4629C895.962 95.9309 896.472 96.5969 896.832 97.4609C897.192 98.3129 897.372 99.3329 897.372 100.521C897.372 101.709 897.192 102.735 896.832 103.599C896.472 104.463 895.962 105.129 895.302 105.597C894.642 106.065 893.862 106.299 892.962 106.299C892.41 106.299 891.906 106.179 891.45 105.939C890.994 105.699 890.658 105.381 890.442 104.985H889.812V109.611H887.22ZM892.26 103.959C893.076 103.959 893.712 103.659 894.168 103.059C894.624 102.447 894.852 101.601 894.852 100.521C894.852 99.4409 894.624 98.6009 894.168 98.0009C893.712 97.3889 893.076 97.0829 892.26 97.0829C891.432 97.0829 890.79 97.3889 890.334 98.0009C889.89 98.6009 889.668 99.4409 889.668 100.521C889.668 101.613 889.89 102.459 890.334 103.059C890.79 103.659 891.432 103.959 892.26 103.959ZM902.217 102.609C902.385 103.077 902.661 103.437 903.045 103.689C903.429 103.929 903.921 104.049 904.521 104.049C905.157 104.049 905.643 103.947 905.979 103.743C906.315 103.539 906.483 103.251 906.483 102.879C906.483 102.579 906.357 102.345 906.105 102.177C905.853 101.997 905.469 101.871 904.953 101.799L903.441 101.619C902.229 101.463 901.323 101.115 900.723 100.575C900.135 100.035 899.841 99.2729 899.841 98.2889C899.841 97.1729 900.243 96.2969 901.047 95.6609C901.863 95.0249 902.991 94.7069 904.431 94.7069C905.931 94.7069 907.095 95.0489 907.923 95.7329C908.763 96.4049 909.213 97.3769 909.273 98.6489H906.879C906.735 98.1089 906.459 97.7009 906.051 97.4249C905.643 97.1369 905.097 96.9929 904.413 96.9929C903.741 96.9929 903.225 97.1009 902.865 97.3169C902.517 97.5209 902.343 97.8149 902.343 98.1989C902.343 98.4869 902.469 98.7209 902.721 98.9009C902.973 99.0689 903.357 99.1829 903.873 99.2429L905.385 99.4409C906.609 99.5849 907.515 99.9329 908.103 100.485C908.691 101.025 908.985 101.781 908.985 102.753C908.985 103.497 908.805 104.139 908.445 104.679C908.097 105.207 907.587 105.615 906.915 105.903C906.255 106.191 905.451 106.335 904.503 106.335C903.063 106.335 901.941 106.017 901.137 105.381C900.333 104.733 899.883 103.809 899.787 102.609H902.217Z" fill="#062630"/>
<g clip-path="url(#clip0_122_288)">
<path d="M148.545 21.8194C158.681 15.2442 186.274 4.68845 215.559 15.069" stroke="#FEA36F" stroke-width="1.55303" stroke-miterlimit="10" stroke-linecap="round"/>
<path d="M212.105 21.6379C214.102 21.173 216.236 20.8247 218.274 20.5856C218.763 20.5284 223.945 20.0906 223.837 19.7783C223.318 18.2796 222.118 16.8896 221.341 15.5119C219.751 12.6947 218.359 9.90144 217.535 6.77461C217.123 5.20951 216.883 3.62435 216.54 2.06152" stroke="#FEA36F" stroke-width="1.55303" stroke-miterlimit="10" stroke-linecap="round"/>
</g>
<g clip-path="url(#clip1_122_288)">
<path d="M423.547 21.8211C433.683 15.248 461.276 4.69858 490.565 15.0882" stroke="#FEA36F" stroke-width="1.55303" stroke-miterlimit="10" stroke-linecap="round"/>
<path d="M487.114 21.6569C489.111 21.1924 491.244 20.8447 493.283 20.6062C493.772 20.5491 498.954 20.1126 498.845 19.8003C498.326 18.3012 497.126 16.9108 496.348 15.5327C494.758 12.7147 493.364 9.92083 492.54 6.79344C492.127 5.22806 491.887 3.64267 491.544 2.07957" stroke="#FEA36F" stroke-width="1.55303" stroke-miterlimit="10" stroke-linecap="round"/>
</g>
<g clip-path="url(#clip2_122_288)">
<path d="M698.547 21.8211C708.683 15.248 736.276 4.69858 765.565 15.0882" stroke="#FEA36F" stroke-width="1.55303" stroke-miterlimit="10" stroke-linecap="round"/>
<path d="M762.114 21.6569C764.111 21.1924 766.244 20.8447 768.283 20.6062C768.772 20.5491 773.954 20.1126 773.846 19.8003C773.326 18.3012 772.126 16.9108 771.348 15.5327C769.758 12.7147 768.364 9.92083 767.54 6.79344C767.127 5.22806 766.887 3.64267 766.544 2.07957" stroke="#FEA36F" stroke-width="1.55303" stroke-miterlimit="10" stroke-linecap="round"/>
</g>
<defs>
<clipPath id="clip0_122_288">
<rect width="76.7374" height="20.5105" fill="white" transform="matrix(0.988489 -0.151291 0.157091 0.987584 146 12)"/>
</clipPath>
<clipPath id="clip1_122_288">
<rect width="76.7378" height="20.5145" fill="white" transform="matrix(0.988528 -0.151039 0.157353 0.987542 421 12)"/>
</clipPath>
<clipPath id="clip2_122_288">
<rect width="76.7378" height="20.5145" fill="white" transform="matrix(0.988528 -0.151039 0.157353 0.987542 696 12)"/>
</clipPath>
</defs>
</svg>
