<svg width="120" height="138" viewBox="0 0 120 138" fill="none" xmlns="http://www.w3.org/2000/svg">
<rect x="20.5044" width="72" height="72" rx="36" fill="#007ACC"/>
<rect x="39.5044" y="19" width="34" height="34" rx="3.4" fill="white"/>
<path d="M51.4119 38.8054L51.4043 39.7878H52.9655H54.5268V44.2241V48.6603H55.6311H56.7354V44.2241V39.7878H58.2967H59.8579V38.8244C59.8579 38.2913 59.8465 37.8458 59.8313 37.8343C59.8198 37.8191 57.9197 37.8115 55.6159 37.8153L51.4233 37.8267L51.4119 38.8054Z" fill="#007ACC"/>
<path d="M65.4645 37.7988C66.0738 37.9511 66.5383 38.2215 66.9648 38.6632C67.1857 38.8993 67.5132 39.3296 67.5398 39.4324C67.5474 39.4629 66.5041 40.1635 65.8719 40.5558C65.8491 40.571 65.7577 40.472 65.6549 40.3197C65.3464 39.8703 65.0228 39.6761 64.5277 39.6419C63.8004 39.5924 63.332 39.9731 63.3359 40.6091C63.3359 40.7957 63.3625 40.9061 63.4387 41.0584C63.5986 41.3897 63.8956 41.5877 64.8286 41.9914C66.5459 42.7301 67.2809 43.2175 67.7378 43.9106C68.2481 44.6836 68.3623 45.9173 68.0158 46.8351C67.635 47.8327 66.6906 48.5105 65.3617 48.7352C64.9504 48.8076 63.9756 48.7961 63.5339 48.7162C62.5705 48.5448 61.6565 48.0688 61.093 47.4443C60.8721 47.2006 60.4418 46.5647 60.4685 46.519C60.4799 46.5038 60.5789 46.4428 60.6893 46.3781C60.796 46.3172 61.1996 46.0849 61.5804 45.864L62.2696 45.4642L62.4143 45.6774C62.6161 45.9859 63.0579 46.4086 63.3244 46.5495C64.0898 46.9531 65.1408 46.896 65.6587 46.4314C65.8796 46.2296 65.9709 46.0202 65.9709 45.7117C65.9709 45.4337 65.9367 45.3119 65.792 45.1024C65.6054 44.8359 65.2246 44.6112 64.1431 44.1428C62.9056 43.6097 62.3724 43.2784 61.885 42.7529C61.6032 42.4483 61.3367 41.9609 61.2262 41.5534C61.1349 41.2145 61.112 40.3654 61.1844 40.0226C61.4395 38.827 62.342 37.993 63.6443 37.7455C64.067 37.6655 65.0494 37.696 65.4645 37.7988Z" fill="#007ACC"/>
<rect y="83" width="55" height="55" rx="27.5" fill="#161614"/>
<path d="M27.5001 94.9202C18.6789 94.9202 11.5259 102.072 11.5259 110.894C11.5259 117.952 16.103 123.94 22.45 126.052C23.2484 126.2 23.5415 125.706 23.5415 125.284C23.5415 124.903 23.5266 123.645 23.5198 122.31C19.0757 123.276 18.138 120.425 18.138 120.425C17.4113 118.579 16.3643 118.088 16.3643 118.088C14.915 117.096 16.4736 117.117 16.4736 117.117C18.0777 117.229 18.9223 118.763 18.9223 118.763C20.347 121.205 22.6593 120.499 23.5708 120.091C23.7142 119.058 24.1282 118.354 24.585 117.955C21.0369 117.551 17.3071 116.181 17.3071 110.06C17.3071 108.316 17.9311 106.891 18.953 105.772C18.7871 105.37 18.2403 103.745 19.1077 101.545C19.1077 101.545 20.4491 101.116 23.5018 103.182C24.776 102.829 26.1425 102.651 27.5001 102.645C28.8576 102.651 30.2252 102.829 31.5018 103.182C34.5508 101.116 35.8903 101.545 35.8903 101.545C36.7598 103.745 36.2128 105.37 36.0469 105.772C37.0712 106.891 37.691 108.316 37.691 110.06C37.691 116.196 33.954 117.546 30.3969 117.942C30.9699 118.438 31.4804 119.41 31.4804 120.9C31.4804 123.038 31.4619 124.758 31.4619 125.284C31.4619 125.709 31.7494 126.207 32.5592 126.05C38.9028 123.936 43.474 117.95 43.474 110.894C43.474 102.072 36.322 94.9202 27.5001 94.9202ZM17.5087 117.676C17.4736 117.755 17.3487 117.779 17.235 117.725C17.1191 117.672 17.054 117.564 17.0916 117.485C17.126 117.403 17.2511 117.38 17.3667 117.435C17.4828 117.487 17.5489 117.596 17.5087 117.676ZM18.2945 118.377C18.2183 118.448 18.0694 118.415 17.9683 118.303C17.8638 118.192 17.8443 118.043 17.9215 117.971C18.0001 117.901 18.1445 117.934 18.2493 118.045C18.3537 118.158 18.3741 118.306 18.2945 118.377ZM18.8336 119.274C18.7357 119.342 18.5756 119.278 18.4767 119.136C18.3788 118.994 18.3788 118.824 18.4788 118.756C18.578 118.687 18.7357 118.749 18.8359 118.89C18.9335 119.034 18.9335 119.204 18.8336 119.274ZM19.7452 120.313C19.6577 120.409 19.4712 120.384 19.3347 120.252C19.195 120.123 19.1561 119.94 19.2439 119.844C19.3326 119.747 19.5201 119.774 19.6577 119.905C19.7963 120.033 19.8386 120.217 19.7452 120.313ZM20.9234 120.664C20.8848 120.789 20.7052 120.846 20.5243 120.792C20.3436 120.738 20.2254 120.591 20.2619 120.465C20.2994 120.339 20.4798 120.28 20.6621 120.336C20.8425 120.391 20.961 120.536 20.9234 120.664ZM22.2643 120.812C22.2688 120.944 22.1154 121.053 21.9255 121.056C21.7345 121.06 21.58 120.953 21.5779 120.824C21.5779 120.691 21.7279 120.583 21.9189 120.579C22.1088 120.576 22.2643 120.681 22.2643 120.812ZM23.5816 120.762C23.6043 120.89 23.4723 121.022 23.2837 121.058C23.0983 121.092 22.9266 121.012 22.9031 120.885C22.8801 120.753 23.0144 120.621 23.1996 120.587C23.3885 120.554 23.5575 120.631 23.5816 120.762Z" fill="white"/>
<rect x="76.5605" y="83" width="43" height="43" rx="21.5" fill="#00D8FF"/>
<path d="M107.404 99.9271C107.096 99.8204 106.784 99.7216 106.471 99.6307C106.524 99.4138 106.572 99.1995 106.615 98.989C107.322 95.5324 106.86 92.7477 105.282 91.8308C103.769 90.9518 101.295 91.8683 98.7961 94.0597C98.5498 94.2761 98.309 94.4987 98.0739 94.7273C97.9165 94.5753 97.7564 94.4262 97.5935 94.2801C94.9747 91.9371 92.3497 90.9495 90.7735 91.869C89.262 92.7507 88.8144 95.3686 89.4506 98.6445C89.5139 98.969 89.5854 99.2917 89.6649 99.6125C89.2934 99.7189 88.9348 99.8321 88.5917 99.9527C85.5213 101.031 83.5605 102.722 83.5605 104.475C83.5605 106.286 85.6655 108.103 88.8635 109.204C89.1227 109.293 89.3842 109.376 89.6475 109.451C89.562 109.797 89.486 110.145 89.4198 110.495C88.8133 113.714 89.2869 116.27 90.7943 117.146C92.3513 118.051 94.9645 117.121 97.5089 114.879C97.7152 114.697 97.917 114.51 98.114 114.317C98.3686 114.565 98.63 114.805 98.8979 115.038C101.363 117.175 103.797 118.038 105.303 117.16C106.858 116.252 107.364 113.507 106.708 110.166C106.656 109.904 106.598 109.644 106.534 109.385C106.717 109.33 106.897 109.274 107.073 109.215C110.397 108.105 112.561 106.311 112.561 104.475C112.561 102.716 110.536 101.014 107.404 99.9271ZM106.683 108.03C106.525 108.083 106.362 108.134 106.196 108.184C105.829 107.013 105.334 105.768 104.728 104.481C105.306 103.226 105.782 101.997 106.139 100.833C106.436 100.92 106.724 101.011 107.001 101.107C109.685 102.038 111.322 103.415 111.322 104.475C111.322 105.605 109.554 107.072 106.683 108.03ZM105.492 110.408C105.782 111.885 105.824 113.221 105.632 114.265C105.459 115.203 105.112 115.829 104.682 116.079C103.768 116.612 101.814 115.92 99.706 114.092C99.4568 113.875 99.2136 113.652 98.9768 113.422C99.794 112.521 100.611 111.474 101.408 110.312C102.81 110.186 104.134 109.981 105.335 109.701C105.394 109.942 105.447 110.178 105.492 110.408ZM93.4473 115.987C92.5544 116.305 91.8432 116.314 91.4133 116.064C90.4986 115.533 90.1183 113.48 90.637 110.727C90.6987 110.402 90.7693 110.079 90.8487 109.757C92.0366 110.022 93.3514 110.213 94.7567 110.327C95.5592 111.465 96.3994 112.511 97.2462 113.427C97.0662 113.602 96.882 113.773 96.6937 113.939C95.5685 114.93 94.441 115.634 93.4473 115.987ZM89.2643 108.023C87.8502 107.536 86.6824 106.903 85.8819 106.212C85.1626 105.592 84.7995 104.975 84.7995 104.475C84.7995 103.411 86.3738 102.054 88.9995 101.132C89.3182 101.02 89.6517 100.914 89.9978 100.815C90.3607 102.004 90.8367 103.248 91.4112 104.506C90.8292 105.782 90.3464 107.046 89.98 108.249C89.7396 108.18 89.501 108.104 89.2643 108.023ZM90.6665 98.4047C90.1215 95.598 90.4834 93.4809 91.3943 92.9495C92.3644 92.3835 94.5097 93.1905 96.771 95.2137C96.9184 95.3459 97.0635 95.4808 97.2061 95.6183C96.3635 96.5301 95.531 97.5681 94.7356 98.6991C93.3717 98.8265 92.0662 99.031 90.8658 99.3051C90.7919 99.0067 90.7254 98.7065 90.6665 98.4048V98.4047ZM103.176 101.517C102.892 101.024 102.598 100.537 102.294 100.056C103.219 100.174 104.106 100.33 104.938 100.522C104.688 101.329 104.377 102.173 104.01 103.038C103.742 102.526 103.464 102.019 103.176 101.517ZM98.0745 96.5106C98.6459 97.1344 99.2182 97.8308 99.7811 98.5865C98.6392 98.5322 97.4954 98.532 96.3535 98.5858C96.917 97.8371 97.4941 97.1416 98.0745 96.5106ZM92.9405 101.526C92.6559 102.023 92.383 102.527 92.1218 103.037C91.7611 102.175 91.4524 101.327 91.2003 100.508C92.0278 100.322 92.9101 100.169 93.8295 100.054C93.5218 100.537 93.2253 101.028 92.9405 101.526V101.526ZM93.8559 108.986C92.906 108.879 92.0104 108.735 91.1832 108.553C91.4393 107.72 91.7547 106.854 92.1233 105.973C92.3855 106.484 92.6596 106.988 92.9453 107.485C93.2392 107.997 93.5435 108.498 93.8559 108.986ZM98.1087 112.528C97.5214 111.89 96.9358 111.184 96.3638 110.424C96.9191 110.446 97.4852 110.457 98.0605 110.457C98.6516 110.457 99.236 110.444 99.8111 110.418C99.2464 111.191 98.6762 111.898 98.1087 112.528ZM104.022 105.928C104.409 106.819 104.736 107.68 104.996 108.499C104.155 108.692 103.247 108.848 102.29 108.964C102.597 108.474 102.894 107.978 103.181 107.477C103.472 106.967 103.753 106.451 104.022 105.928ZM102.108 106.853C101.668 107.622 101.204 108.376 100.716 109.115C99.8324 109.178 98.9466 109.209 98.0605 109.209C97.158 109.209 96.2802 109.181 95.4349 109.125C94.9342 108.388 94.4614 107.633 94.0174 106.86H94.0175C93.5757 106.091 93.1629 105.306 92.7802 104.505C93.1619 103.705 93.5734 102.919 94.0138 102.149L94.0137 102.15C94.4539 101.38 94.923 100.627 95.4198 99.8938C96.2823 99.828 97.1666 99.7938 98.0604 99.7938H98.0605C98.9584 99.7938 99.8439 99.8284 100.706 99.8946C101.198 100.627 101.664 101.377 102.103 102.143C102.545 102.911 102.962 103.692 103.354 104.487C102.966 105.291 102.551 106.08 102.108 106.853ZM104.663 92.9123C105.634 93.4766 106.012 95.7525 105.402 98.737C105.363 98.9274 105.319 99.1213 105.271 99.318C104.068 99.0381 102.762 98.83 101.394 98.7007C100.597 97.5572 99.7713 96.5176 98.9424 95.6177C99.1597 95.4067 99.3821 95.2011 99.6094 95.0012C101.75 93.1238 103.751 92.3825 104.663 92.9123ZM98.0605 101.866C99.4907 101.866 100.65 103.034 100.65 104.475C100.65 105.917 99.4907 107.085 98.0605 107.085C96.6304 107.085 95.4709 105.917 95.4709 104.475C95.4709 103.034 96.6304 101.866 98.0605 101.866Z" fill="white"/>
</svg>
